<mxfile host="Electron" agent="Mozilla/5.0 (Windows NT 10.0; Win64; x64) AppleWebKit/537.36 (KHTML, like Gecko) draw.io/24.7.5 Chrome/126.0.6478.183 Electron/31.3.0 Safari/537.36" version="24.7.5">
  <diagram name="Page-1" id="YuQhJPyWsVHQhONvEIU4">
    <mxGraphModel dx="3685" dy="2538" grid="1" gridSize="10" guides="1" tooltips="1" connect="1" arrows="1" fold="1" page="1" pageScale="1" pageWidth="850" pageHeight="1100" math="0" shadow="0">
      <root>
        <mxCell id="0" />
        <mxCell id="1" parent="0" />
        <mxCell id="9xaBBuBTVZZ5uzn-Q917-2" value="" style="whiteSpace=wrap;html=1;aspect=fixed;" parent="1" vertex="1">
          <mxGeometry x="-1050" y="-900" width="2960" height="2960" as="geometry" />
        </mxCell>
        <mxCell id="qrhvOayP_8q4RVoLL4xc-213" style="edgeStyle=none;shape=connector;rounded=0;orthogonalLoop=1;jettySize=auto;html=1;exitX=0.5;exitY=0;exitDx=0;exitDy=0;exitPerimeter=0;entryX=1;entryY=1;entryDx=0;entryDy=0;strokeColor=default;strokeWidth=2;align=center;verticalAlign=middle;fontFamily=Helvetica;fontSize=11;fontColor=default;labelBackgroundColor=default;endArrow=none;endFill=0;" parent="1" source="9xaBBuBTVZZ5uzn-Q917-1" target="9xaBBuBTVZZ5uzn-Q917-60" edge="1">
          <mxGeometry relative="1" as="geometry" />
        </mxCell>
        <mxCell id="qrhvOayP_8q4RVoLL4xc-217" style="edgeStyle=none;shape=connector;rounded=0;orthogonalLoop=1;jettySize=auto;html=1;exitX=0.5;exitY=0.5;exitDx=0;exitDy=0;exitPerimeter=0;strokeColor=default;strokeWidth=2;align=center;verticalAlign=middle;fontFamily=Helvetica;fontSize=11;fontColor=default;labelBackgroundColor=default;endArrow=none;endFill=0;" parent="1" source="9xaBBuBTVZZ5uzn-Q917-1" target="qrhvOayP_8q4RVoLL4xc-145" edge="1">
          <mxGeometry relative="1" as="geometry" />
        </mxCell>
        <mxCell id="qrhvOayP_8q4RVoLL4xc-218" style="edgeStyle=none;shape=connector;rounded=0;orthogonalLoop=1;jettySize=auto;html=1;exitX=0.5;exitY=0.5;exitDx=0;exitDy=0;exitPerimeter=0;strokeColor=default;strokeWidth=2;align=center;verticalAlign=middle;fontFamily=Helvetica;fontSize=11;fontColor=default;labelBackgroundColor=default;endArrow=none;endFill=0;" parent="1" source="9xaBBuBTVZZ5uzn-Q917-1" target="qrhvOayP_8q4RVoLL4xc-146" edge="1">
          <mxGeometry relative="1" as="geometry" />
        </mxCell>
        <mxCell id="qrhvOayP_8q4RVoLL4xc-219" style="edgeStyle=none;shape=connector;rounded=0;orthogonalLoop=1;jettySize=auto;html=1;exitX=0.5;exitY=0.5;exitDx=0;exitDy=0;exitPerimeter=0;entryX=1;entryY=0;entryDx=0;entryDy=0;strokeColor=default;strokeWidth=2;align=center;verticalAlign=middle;fontFamily=Helvetica;fontSize=11;fontColor=default;labelBackgroundColor=default;endArrow=none;endFill=0;" parent="1" source="9xaBBuBTVZZ5uzn-Q917-1" target="qrhvOayP_8q4RVoLL4xc-147" edge="1">
          <mxGeometry relative="1" as="geometry" />
        </mxCell>
        <mxCell id="qrhvOayP_8q4RVoLL4xc-220" style="edgeStyle=none;shape=connector;rounded=0;orthogonalLoop=1;jettySize=auto;html=1;exitX=0.5;exitY=0.5;exitDx=0;exitDy=0;exitPerimeter=0;entryX=0;entryY=0;entryDx=0;entryDy=0;strokeColor=default;strokeWidth=2;align=center;verticalAlign=middle;fontFamily=Helvetica;fontSize=11;fontColor=default;labelBackgroundColor=default;endArrow=none;endFill=0;" parent="1" source="9xaBBuBTVZZ5uzn-Q917-1" target="qrhvOayP_8q4RVoLL4xc-148" edge="1">
          <mxGeometry relative="1" as="geometry" />
        </mxCell>
        <mxCell id="qrhvOayP_8q4RVoLL4xc-222" style="edgeStyle=none;shape=connector;rounded=0;orthogonalLoop=1;jettySize=auto;html=1;exitX=0.5;exitY=0.5;exitDx=0;exitDy=0;exitPerimeter=0;entryX=1;entryY=0;entryDx=0;entryDy=0;strokeColor=default;strokeWidth=2;align=center;verticalAlign=middle;fontFamily=Helvetica;fontSize=11;fontColor=default;labelBackgroundColor=default;endArrow=none;endFill=0;" parent="1" source="9xaBBuBTVZZ5uzn-Q917-1" target="qrhvOayP_8q4RVoLL4xc-142" edge="1">
          <mxGeometry relative="1" as="geometry" />
        </mxCell>
        <mxCell id="qrhvOayP_8q4RVoLL4xc-223" style="edgeStyle=none;shape=connector;rounded=0;orthogonalLoop=1;jettySize=auto;html=1;exitX=0.5;exitY=0.5;exitDx=0;exitDy=0;exitPerimeter=0;strokeColor=default;strokeWidth=2;align=center;verticalAlign=middle;fontFamily=Helvetica;fontSize=11;fontColor=default;labelBackgroundColor=default;endArrow=none;endFill=0;" parent="1" source="9xaBBuBTVZZ5uzn-Q917-1" target="qrhvOayP_8q4RVoLL4xc-143" edge="1">
          <mxGeometry relative="1" as="geometry" />
        </mxCell>
        <mxCell id="9xaBBuBTVZZ5uzn-Q917-1" value="SM" style="shape=umlActor;verticalLabelPosition=bottom;verticalAlign=top;html=1;outlineConnect=0;" parent="1" vertex="1">
          <mxGeometry x="1940" y="1450" width="30" height="60" as="geometry" />
        </mxCell>
        <mxCell id="9xaBBuBTVZZ5uzn-Q917-3" value="&lt;div&gt;&lt;span style=&quot;font-family: &amp;quot;Times New Roman&amp;quot;;&quot;&gt;&lt;font style=&quot;font-size: 60px;&quot;&gt;Procurement Order Tracking System (POTS)&lt;/font&gt;&lt;/span&gt;&lt;/div&gt;" style="text;html=1;align=center;verticalAlign=middle;whiteSpace=wrap;rounded=0;" parent="1" vertex="1">
          <mxGeometry x="-1015" y="-850" width="1290" height="40" as="geometry" />
        </mxCell>
        <mxCell id="qrhvOayP_8q4RVoLL4xc-47" style="edgeStyle=none;shape=connector;rounded=0;orthogonalLoop=1;jettySize=auto;html=1;exitX=1;exitY=0.5;exitDx=0;exitDy=0;entryX=0;entryY=0.5;entryDx=0;entryDy=0;dashed=1;strokeColor=default;align=center;verticalAlign=middle;fontFamily=Helvetica;fontSize=11;fontColor=default;labelBackgroundColor=default;endArrow=classic;" parent="1" source="9xaBBuBTVZZ5uzn-Q917-26" target="qrhvOayP_8q4RVoLL4xc-41" edge="1">
          <mxGeometry relative="1" as="geometry" />
        </mxCell>
        <mxCell id="qrhvOayP_8q4RVoLL4xc-48" value="&amp;lt;&amp;lt;include&amp;gt;&amp;gt;" style="edgeLabel;html=1;align=center;verticalAlign=middle;resizable=0;points=[];fontFamily=Helvetica;fontSize=11;fontColor=default;labelBackgroundColor=default;" parent="qrhvOayP_8q4RVoLL4xc-47" connectable="0" vertex="1">
          <mxGeometry x="-0.2711" relative="1" as="geometry">
            <mxPoint as="offset" />
          </mxGeometry>
        </mxCell>
        <mxCell id="qrhvOayP_8q4RVoLL4xc-125" style="edgeStyle=none;shape=connector;rounded=0;orthogonalLoop=1;jettySize=auto;html=1;exitX=0;exitY=1;exitDx=0;exitDy=0;strokeColor=default;strokeWidth=2;align=center;verticalAlign=middle;fontFamily=Helvetica;fontSize=11;fontColor=default;labelBackgroundColor=default;endArrow=none;endFill=0;" parent="1" source="9xaBBuBTVZZ5uzn-Q917-26" target="9xaBBuBTVZZ5uzn-Q917-57" edge="1">
          <mxGeometry relative="1" as="geometry" />
        </mxCell>
        <mxCell id="9xaBBuBTVZZ5uzn-Q917-26" value="Update Stock Level to Increase" style="ellipse;whiteSpace=wrap;html=1;" parent="1" vertex="1">
          <mxGeometry x="-280" y="-160" width="120" height="80" as="geometry" />
        </mxCell>
        <mxCell id="qrhvOayP_8q4RVoLL4xc-23" style="rounded=0;orthogonalLoop=1;jettySize=auto;html=1;exitX=1;exitY=0;exitDx=0;exitDy=0;entryX=0;entryY=0.5;entryDx=0;entryDy=0;dashed=1;" parent="1" source="9xaBBuBTVZZ5uzn-Q917-28" target="06dGs_Eq-icP-Wr_ScK_-25" edge="1">
          <mxGeometry relative="1" as="geometry" />
        </mxCell>
        <mxCell id="qrhvOayP_8q4RVoLL4xc-26" value="&amp;lt;&amp;lt;include&amp;gt;&amp;gt;" style="edgeLabel;html=1;align=center;verticalAlign=middle;resizable=0;points=[];" parent="qrhvOayP_8q4RVoLL4xc-23" connectable="0" vertex="1">
          <mxGeometry x="-0.2029" y="3" relative="1" as="geometry">
            <mxPoint as="offset" />
          </mxGeometry>
        </mxCell>
        <mxCell id="qrhvOayP_8q4RVoLL4xc-24" style="rounded=0;orthogonalLoop=1;jettySize=auto;html=1;exitX=1;exitY=0.5;exitDx=0;exitDy=0;entryX=0;entryY=0.5;entryDx=0;entryDy=0;dashed=1;" parent="1" source="9xaBBuBTVZZ5uzn-Q917-28" target="06dGs_Eq-icP-Wr_ScK_-27" edge="1">
          <mxGeometry relative="1" as="geometry" />
        </mxCell>
        <mxCell id="qrhvOayP_8q4RVoLL4xc-27" value="&amp;lt;&amp;lt;include&amp;gt;&amp;gt;" style="edgeLabel;html=1;align=center;verticalAlign=middle;resizable=0;points=[];" parent="qrhvOayP_8q4RVoLL4xc-24" connectable="0" vertex="1">
          <mxGeometry x="-0.2635" y="4" relative="1" as="geometry">
            <mxPoint as="offset" />
          </mxGeometry>
        </mxCell>
        <mxCell id="qrhvOayP_8q4RVoLL4xc-25" style="rounded=0;orthogonalLoop=1;jettySize=auto;html=1;exitX=1;exitY=1;exitDx=0;exitDy=0;dashed=1;" parent="1" source="9xaBBuBTVZZ5uzn-Q917-28" target="qrhvOayP_8q4RVoLL4xc-17" edge="1">
          <mxGeometry relative="1" as="geometry" />
        </mxCell>
        <mxCell id="qrhvOayP_8q4RVoLL4xc-28" value="&amp;lt;&amp;lt;include&amp;gt;&amp;gt;" style="edgeLabel;html=1;align=center;verticalAlign=middle;resizable=0;points=[];" parent="qrhvOayP_8q4RVoLL4xc-25" connectable="0" vertex="1">
          <mxGeometry x="-0.3359" y="3" relative="1" as="geometry">
            <mxPoint as="offset" />
          </mxGeometry>
        </mxCell>
        <mxCell id="qrhvOayP_8q4RVoLL4xc-126" style="edgeStyle=none;shape=connector;rounded=0;orthogonalLoop=1;jettySize=auto;html=1;exitX=0;exitY=0.5;exitDx=0;exitDy=0;strokeColor=default;strokeWidth=2;align=center;verticalAlign=middle;fontFamily=Helvetica;fontSize=11;fontColor=default;labelBackgroundColor=default;endArrow=none;endFill=0;" parent="1" source="9xaBBuBTVZZ5uzn-Q917-28" target="9xaBBuBTVZZ5uzn-Q917-57" edge="1">
          <mxGeometry relative="1" as="geometry" />
        </mxCell>
        <mxCell id="9xaBBuBTVZZ5uzn-Q917-28" value="Enter New Supplier" style="ellipse;whiteSpace=wrap;html=1;" parent="1" vertex="1">
          <mxGeometry x="-590" y="265" width="120" height="80" as="geometry" />
        </mxCell>
        <mxCell id="qrhvOayP_8q4RVoLL4xc-5" style="rounded=0;orthogonalLoop=1;jettySize=auto;html=1;exitX=1;exitY=0.5;exitDx=0;exitDy=0;entryX=0;entryY=0.5;entryDx=0;entryDy=0;" parent="1" source="9xaBBuBTVZZ5uzn-Q917-41" target="9xaBBuBTVZZ5uzn-Q917-42" edge="1">
          <mxGeometry relative="1" as="geometry" />
        </mxCell>
        <mxCell id="qrhvOayP_8q4RVoLL4xc-6" value="&amp;lt;&amp;lt;include&amp;gt;&amp;gt;" style="edgeLabel;html=1;align=center;verticalAlign=middle;resizable=0;points=[];" parent="qrhvOayP_8q4RVoLL4xc-5" connectable="0" vertex="1">
          <mxGeometry x="-0.088" relative="1" as="geometry">
            <mxPoint as="offset" />
          </mxGeometry>
        </mxCell>
        <mxCell id="9xaBBuBTVZZ5uzn-Q917-41" value="Complete Payment of PO" style="ellipse;whiteSpace=wrap;html=1;" parent="1" vertex="1">
          <mxGeometry x="-1020" y="1250" width="120" height="80" as="geometry" />
        </mxCell>
        <mxCell id="qrhvOayP_8q4RVoLL4xc-7" style="edgeStyle=orthogonalEdgeStyle;rounded=0;orthogonalLoop=1;jettySize=auto;html=1;exitX=1;exitY=0.5;exitDx=0;exitDy=0;entryX=0;entryY=0.5;entryDx=0;entryDy=0;" parent="1" source="9xaBBuBTVZZ5uzn-Q917-42" target="9xaBBuBTVZZ5uzn-Q917-45" edge="1">
          <mxGeometry relative="1" as="geometry" />
        </mxCell>
        <mxCell id="qrhvOayP_8q4RVoLL4xc-8" value="&amp;lt;&amp;lt;include&amp;gt;&amp;gt;" style="edgeLabel;html=1;align=center;verticalAlign=middle;resizable=0;points=[];" parent="qrhvOayP_8q4RVoLL4xc-7" connectable="0" vertex="1">
          <mxGeometry x="-0.2001" y="1" relative="1" as="geometry">
            <mxPoint as="offset" />
          </mxGeometry>
        </mxCell>
        <mxCell id="9xaBBuBTVZZ5uzn-Q917-42" value="Process Payment of PO" style="ellipse;whiteSpace=wrap;html=1;" parent="1" vertex="1">
          <mxGeometry x="-860" y="1310" width="120" height="80" as="geometry" />
        </mxCell>
        <mxCell id="qrhvOayP_8q4RVoLL4xc-13" style="rounded=0;orthogonalLoop=1;jettySize=auto;html=1;exitX=1;exitY=0.5;exitDx=0;exitDy=0;entryX=0;entryY=0.5;entryDx=0;entryDy=0;" parent="1" source="9xaBBuBTVZZ5uzn-Q917-45" target="qrhvOayP_8q4RVoLL4xc-12" edge="1">
          <mxGeometry relative="1" as="geometry" />
        </mxCell>
        <mxCell id="qrhvOayP_8q4RVoLL4xc-15" value="&amp;lt;&amp;lt;include&amp;gt;&amp;gt;" style="edgeLabel;html=1;align=center;verticalAlign=middle;resizable=0;points=[];" parent="qrhvOayP_8q4RVoLL4xc-13" connectable="0" vertex="1">
          <mxGeometry x="-0.0476" y="1" relative="1" as="geometry">
            <mxPoint as="offset" />
          </mxGeometry>
        </mxCell>
        <mxCell id="9xaBBuBTVZZ5uzn-Q917-45" value="Approve PO" style="ellipse;whiteSpace=wrap;html=1;" parent="1" vertex="1">
          <mxGeometry x="-610" y="1310" width="120" height="80" as="geometry" />
        </mxCell>
        <mxCell id="qrhvOayP_8q4RVoLL4xc-9" style="edgeStyle=orthogonalEdgeStyle;rounded=0;orthogonalLoop=1;jettySize=auto;html=1;exitX=0.5;exitY=0;exitDx=0;exitDy=0;entryX=0.5;entryY=1;entryDx=0;entryDy=0;" parent="1" source="9xaBBuBTVZZ5uzn-Q917-46" target="9xaBBuBTVZZ5uzn-Q917-45" edge="1">
          <mxGeometry relative="1" as="geometry" />
        </mxCell>
        <mxCell id="qrhvOayP_8q4RVoLL4xc-10" value="&amp;lt;&amp;lt;extend&amp;gt;&amp;gt;" style="edgeLabel;html=1;align=center;verticalAlign=middle;resizable=0;points=[];" parent="qrhvOayP_8q4RVoLL4xc-9" connectable="0" vertex="1">
          <mxGeometry x="-0.0699" y="-1" relative="1" as="geometry">
            <mxPoint y="1" as="offset" />
          </mxGeometry>
        </mxCell>
        <mxCell id="qrhvOayP_8q4RVoLL4xc-14" style="rounded=0;orthogonalLoop=1;jettySize=auto;html=1;exitX=1;exitY=0.5;exitDx=0;exitDy=0;entryX=0;entryY=1;entryDx=0;entryDy=0;" parent="1" source="9xaBBuBTVZZ5uzn-Q917-46" target="qrhvOayP_8q4RVoLL4xc-12" edge="1">
          <mxGeometry relative="1" as="geometry" />
        </mxCell>
        <mxCell id="qrhvOayP_8q4RVoLL4xc-16" value="&amp;lt;&amp;lt;include&amp;gt;&amp;gt;" style="edgeLabel;html=1;align=center;verticalAlign=middle;resizable=0;points=[];" parent="qrhvOayP_8q4RVoLL4xc-14" connectable="0" vertex="1">
          <mxGeometry x="-0.2206" y="2" relative="1" as="geometry">
            <mxPoint as="offset" />
          </mxGeometry>
        </mxCell>
        <mxCell id="9xaBBuBTVZZ5uzn-Q917-46" value="Reject PO" style="ellipse;whiteSpace=wrap;html=1;" parent="1" vertex="1">
          <mxGeometry x="-610" y="1450" width="120" height="80" as="geometry" />
        </mxCell>
        <mxCell id="qrhvOayP_8q4RVoLL4xc-211" style="edgeStyle=none;shape=connector;rounded=0;orthogonalLoop=1;jettySize=auto;html=1;exitX=0.5;exitY=0.5;exitDx=0;exitDy=0;exitPerimeter=0;entryX=0;entryY=0;entryDx=0;entryDy=0;strokeColor=default;strokeWidth=2;align=center;verticalAlign=middle;fontFamily=Helvetica;fontSize=11;fontColor=default;labelBackgroundColor=default;endArrow=none;endFill=0;" parent="1" source="9xaBBuBTVZZ5uzn-Q917-57" target="9xaBBuBTVZZ5uzn-Q917-60" edge="1">
          <mxGeometry relative="1" as="geometry" />
        </mxCell>
        <mxCell id="qrhvOayP_8q4RVoLL4xc-203" style="edgeStyle=none;shape=connector;rounded=0;orthogonalLoop=1;jettySize=auto;html=1;exitX=0.5;exitY=0.5;exitDx=0;exitDy=0;exitPerimeter=0;entryX=1;entryY=0.5;entryDx=0;entryDy=0;strokeColor=default;strokeWidth=2;align=center;verticalAlign=middle;fontFamily=Helvetica;fontSize=11;fontColor=default;labelBackgroundColor=default;endArrow=none;endFill=0;" parent="1" source="9xaBBuBTVZZ5uzn-Q917-58" target="qrhvOayP_8q4RVoLL4xc-128" edge="1">
          <mxGeometry relative="1" as="geometry" />
        </mxCell>
        <mxCell id="qrhvOayP_8q4RVoLL4xc-204" style="edgeStyle=none;shape=connector;rounded=0;orthogonalLoop=1;jettySize=auto;html=1;exitX=0.5;exitY=0.5;exitDx=0;exitDy=0;exitPerimeter=0;entryX=1;entryY=0.5;entryDx=0;entryDy=0;strokeColor=default;strokeWidth=2;align=center;verticalAlign=middle;fontFamily=Helvetica;fontSize=11;fontColor=default;labelBackgroundColor=default;endArrow=none;endFill=0;" parent="1" source="9xaBBuBTVZZ5uzn-Q917-58" target="qrhvOayP_8q4RVoLL4xc-129" edge="1">
          <mxGeometry relative="1" as="geometry" />
        </mxCell>
        <mxCell id="qrhvOayP_8q4RVoLL4xc-205" style="edgeStyle=none;shape=connector;rounded=0;orthogonalLoop=1;jettySize=auto;html=1;exitX=0.5;exitY=0.5;exitDx=0;exitDy=0;exitPerimeter=0;entryX=1;entryY=0.5;entryDx=0;entryDy=0;strokeColor=default;strokeWidth=2;align=center;verticalAlign=middle;fontFamily=Helvetica;fontSize=11;fontColor=default;labelBackgroundColor=default;endArrow=none;endFill=0;" parent="1" source="9xaBBuBTVZZ5uzn-Q917-58" target="qrhvOayP_8q4RVoLL4xc-105" edge="1">
          <mxGeometry relative="1" as="geometry" />
        </mxCell>
        <mxCell id="qrhvOayP_8q4RVoLL4xc-206" style="edgeStyle=none;shape=connector;rounded=0;orthogonalLoop=1;jettySize=auto;html=1;exitX=0.5;exitY=0.5;exitDx=0;exitDy=0;exitPerimeter=0;entryX=1;entryY=0;entryDx=0;entryDy=0;strokeColor=default;strokeWidth=2;align=center;verticalAlign=middle;fontFamily=Helvetica;fontSize=11;fontColor=default;labelBackgroundColor=default;endArrow=none;endFill=0;" parent="1" source="9xaBBuBTVZZ5uzn-Q917-58" target="qrhvOayP_8q4RVoLL4xc-130" edge="1">
          <mxGeometry relative="1" as="geometry" />
        </mxCell>
        <mxCell id="qrhvOayP_8q4RVoLL4xc-207" style="edgeStyle=none;shape=connector;rounded=0;orthogonalLoop=1;jettySize=auto;html=1;exitX=0.5;exitY=0.5;exitDx=0;exitDy=0;exitPerimeter=0;strokeColor=default;strokeWidth=2;align=center;verticalAlign=middle;fontFamily=Helvetica;fontSize=11;fontColor=default;labelBackgroundColor=default;endArrow=none;endFill=0;" parent="1" source="9xaBBuBTVZZ5uzn-Q917-58" target="qrhvOayP_8q4RVoLL4xc-131" edge="1">
          <mxGeometry relative="1" as="geometry" />
        </mxCell>
        <mxCell id="qrhvOayP_8q4RVoLL4xc-214" style="edgeStyle=none;shape=connector;rounded=0;orthogonalLoop=1;jettySize=auto;html=1;exitX=0.5;exitY=0.5;exitDx=0;exitDy=0;exitPerimeter=0;entryX=1;entryY=0;entryDx=0;entryDy=0;strokeColor=default;strokeWidth=2;align=center;verticalAlign=middle;fontFamily=Helvetica;fontSize=11;fontColor=default;labelBackgroundColor=default;endArrow=none;endFill=0;" parent="1" source="9xaBBuBTVZZ5uzn-Q917-58" target="9xaBBuBTVZZ5uzn-Q917-60" edge="1">
          <mxGeometry relative="1" as="geometry" />
        </mxCell>
        <mxCell id="9xaBBuBTVZZ5uzn-Q917-58" value="PM" style="shape=umlActor;verticalLabelPosition=bottom;verticalAlign=top;html=1;outlineConnect=0;" parent="1" vertex="1">
          <mxGeometry x="1930" y="747.5" width="30" height="60" as="geometry" />
        </mxCell>
        <mxCell id="qrhvOayP_8q4RVoLL4xc-215" style="edgeStyle=none;shape=connector;rounded=0;orthogonalLoop=1;jettySize=auto;html=1;exitX=0;exitY=0.3333333333333333;exitDx=0;exitDy=0;exitPerimeter=0;entryX=0.5;entryY=0;entryDx=0;entryDy=0;strokeColor=default;strokeWidth=2;align=center;verticalAlign=middle;fontFamily=Helvetica;fontSize=11;fontColor=default;labelBackgroundColor=default;endArrow=none;endFill=0;" parent="1" source="9xaBBuBTVZZ5uzn-Q917-59" target="9xaBBuBTVZZ5uzn-Q917-60" edge="1">
          <mxGeometry relative="1" as="geometry" />
        </mxCell>
        <mxCell id="9xaBBuBTVZZ5uzn-Q917-59" value="Admin" style="shape=umlActor;verticalLabelPosition=bottom;verticalAlign=top;html=1;outlineConnect=0;" parent="1" vertex="1">
          <mxGeometry x="1910" y="-265" width="30" height="60" as="geometry" />
        </mxCell>
        <mxCell id="9xaBBuBTVZZ5uzn-Q917-63" style="rounded=0;orthogonalLoop=1;jettySize=auto;html=1;exitX=1;exitY=0.5;exitDx=0;exitDy=0;entryX=0;entryY=0.5;entryDx=0;entryDy=0;dashed=1;" parent="1" source="9xaBBuBTVZZ5uzn-Q917-60" target="9xaBBuBTVZZ5uzn-Q917-61" edge="1">
          <mxGeometry relative="1" as="geometry" />
        </mxCell>
        <mxCell id="qrhvOayP_8q4RVoLL4xc-209" value="&amp;lt;&amp;lt;include&amp;gt;&amp;gt;" style="edgeLabel;html=1;align=center;verticalAlign=middle;resizable=0;points=[];fontFamily=Helvetica;fontSize=11;fontColor=default;labelBackgroundColor=default;" parent="9xaBBuBTVZZ5uzn-Q917-63" connectable="0" vertex="1">
          <mxGeometry x="-0.2168" y="4" relative="1" as="geometry">
            <mxPoint y="1" as="offset" />
          </mxGeometry>
        </mxCell>
        <mxCell id="9xaBBuBTVZZ5uzn-Q917-60" value="Login" style="ellipse;whiteSpace=wrap;html=1;" parent="1" vertex="1">
          <mxGeometry x="-130" y="697.46" width="120" height="80" as="geometry" />
        </mxCell>
        <mxCell id="9xaBBuBTVZZ5uzn-Q917-61" value="Enter User ID and Password" style="ellipse;whiteSpace=wrap;html=1;" parent="1" vertex="1">
          <mxGeometry x="190" y="765" width="120" height="80" as="geometry" />
        </mxCell>
        <mxCell id="9xaBBuBTVZZ5uzn-Q917-64" style="rounded=0;orthogonalLoop=1;jettySize=auto;html=1;exitX=0.5;exitY=0;exitDx=0;exitDy=0;dashed=1;" parent="1" source="9xaBBuBTVZZ5uzn-Q917-62" target="9xaBBuBTVZZ5uzn-Q917-60" edge="1">
          <mxGeometry relative="1" as="geometry" />
        </mxCell>
        <mxCell id="qrhvOayP_8q4RVoLL4xc-210" value="&amp;lt;&amp;lt;entend&amp;gt;&amp;gt;" style="edgeLabel;html=1;align=center;verticalAlign=middle;resizable=0;points=[];fontFamily=Helvetica;fontSize=11;fontColor=default;labelBackgroundColor=default;" parent="9xaBBuBTVZZ5uzn-Q917-64" connectable="0" vertex="1">
          <mxGeometry x="0.1982" y="-1" relative="1" as="geometry">
            <mxPoint as="offset" />
          </mxGeometry>
        </mxCell>
        <mxCell id="9xaBBuBTVZZ5uzn-Q917-62" value="LogOut" style="ellipse;whiteSpace=wrap;html=1;" parent="1" vertex="1">
          <mxGeometry x="-80" y="845" width="120" height="80" as="geometry" />
        </mxCell>
        <mxCell id="qrhvOayP_8q4RVoLL4xc-212" style="edgeStyle=none;shape=connector;rounded=0;orthogonalLoop=1;jettySize=auto;html=1;exitX=0.25;exitY=0.1;exitDx=0;exitDy=0;exitPerimeter=0;entryX=0;entryY=0.5;entryDx=0;entryDy=0;strokeColor=default;strokeWidth=2;align=center;verticalAlign=middle;fontFamily=Helvetica;fontSize=11;fontColor=default;labelBackgroundColor=default;endArrow=none;endFill=0;" parent="1" source="9xaBBuBTVZZ5uzn-Q917-65" target="9xaBBuBTVZZ5uzn-Q917-60" edge="1">
          <mxGeometry relative="1" as="geometry" />
        </mxCell>
        <mxCell id="qrhvOayP_8q4RVoLL4xc-224" style="edgeStyle=none;shape=connector;rounded=0;orthogonalLoop=1;jettySize=auto;html=1;exitX=0.5;exitY=0.5;exitDx=0;exitDy=0;exitPerimeter=0;entryX=0;entryY=0.5;entryDx=0;entryDy=0;strokeColor=default;strokeWidth=2;align=center;verticalAlign=middle;fontFamily=Helvetica;fontSize=11;fontColor=default;labelBackgroundColor=default;endArrow=none;endFill=0;" parent="1" source="9xaBBuBTVZZ5uzn-Q917-65" target="9xaBBuBTVZZ5uzn-Q917-154" edge="1">
          <mxGeometry relative="1" as="geometry" />
        </mxCell>
        <mxCell id="qrhvOayP_8q4RVoLL4xc-225" style="edgeStyle=none;shape=connector;rounded=0;orthogonalLoop=1;jettySize=auto;html=1;exitX=0.5;exitY=0.5;exitDx=0;exitDy=0;exitPerimeter=0;strokeColor=default;strokeWidth=2;align=center;verticalAlign=middle;fontFamily=Helvetica;fontSize=11;fontColor=default;labelBackgroundColor=default;endArrow=none;endFill=0;" parent="1" source="9xaBBuBTVZZ5uzn-Q917-65" target="9xaBBuBTVZZ5uzn-Q917-41" edge="1">
          <mxGeometry relative="1" as="geometry" />
        </mxCell>
        <mxCell id="9xaBBuBTVZZ5uzn-Q917-65" value="FM" style="shape=umlActor;verticalLabelPosition=bottom;verticalAlign=top;html=1;outlineConnect=0;" parent="1" vertex="1">
          <mxGeometry x="-1165" y="1122.5" width="30" height="60" as="geometry" />
        </mxCell>
        <mxCell id="9xaBBuBTVZZ5uzn-Q917-66" value="Create User" style="ellipse;whiteSpace=wrap;html=1;" parent="1" vertex="1">
          <mxGeometry x="1760" y="-360" width="120" height="80" as="geometry" />
        </mxCell>
        <mxCell id="9xaBBuBTVZZ5uzn-Q917-128" style="rounded=0;orthogonalLoop=1;jettySize=auto;html=1;exitX=1;exitY=1;exitDx=0;exitDy=0;entryX=0;entryY=0.3333333333333333;entryDx=0;entryDy=0;entryPerimeter=0;strokeWidth=2;endArrow=none;endFill=0;" parent="1" source="9xaBBuBTVZZ5uzn-Q917-66" target="9xaBBuBTVZZ5uzn-Q917-59" edge="1">
          <mxGeometry relative="1" as="geometry" />
        </mxCell>
        <mxCell id="qrhvOayP_8q4RVoLL4xc-30" style="rounded=0;orthogonalLoop=1;jettySize=auto;html=1;exitX=0;exitY=0.5;exitDx=0;exitDy=0;entryX=1;entryY=0.5;entryDx=0;entryDy=0;dashed=1;" parent="1" source="9xaBBuBTVZZ5uzn-Q917-144" target="06dGs_Eq-icP-Wr_ScK_-9" edge="1">
          <mxGeometry relative="1" as="geometry" />
        </mxCell>
        <mxCell id="qrhvOayP_8q4RVoLL4xc-31" value="&amp;lt;&amp;lt;include&amp;gt;&amp;gt;" style="edgeLabel;html=1;align=center;verticalAlign=middle;resizable=0;points=[];fontFamily=Helvetica;fontSize=11;fontColor=default;labelBackgroundColor=default;" parent="qrhvOayP_8q4RVoLL4xc-30" connectable="0" vertex="1">
          <mxGeometry x="-0.1771" y="2" relative="1" as="geometry">
            <mxPoint as="offset" />
          </mxGeometry>
        </mxCell>
        <mxCell id="qrhvOayP_8q4RVoLL4xc-32" style="edgeStyle=none;shape=connector;rounded=0;orthogonalLoop=1;jettySize=auto;html=1;exitX=0;exitY=1;exitDx=0;exitDy=0;entryX=1;entryY=0;entryDx=0;entryDy=0;dashed=1;strokeColor=default;align=center;verticalAlign=middle;fontFamily=Helvetica;fontSize=11;fontColor=default;labelBackgroundColor=default;endArrow=classic;" parent="1" source="9xaBBuBTVZZ5uzn-Q917-144" target="06dGs_Eq-icP-Wr_ScK_-10" edge="1">
          <mxGeometry relative="1" as="geometry" />
        </mxCell>
        <mxCell id="qrhvOayP_8q4RVoLL4xc-33" value="&amp;lt;&amp;lt;include&amp;gt;&amp;gt;" style="edgeLabel;html=1;align=center;verticalAlign=middle;resizable=0;points=[];fontFamily=Helvetica;fontSize=11;fontColor=default;labelBackgroundColor=default;" parent="qrhvOayP_8q4RVoLL4xc-32" connectable="0" vertex="1">
          <mxGeometry x="0.0386" relative="1" as="geometry">
            <mxPoint as="offset" />
          </mxGeometry>
        </mxCell>
        <mxCell id="qrhvOayP_8q4RVoLL4xc-34" style="edgeStyle=none;shape=connector;rounded=0;orthogonalLoop=1;jettySize=auto;html=1;exitX=0.5;exitY=1;exitDx=0;exitDy=0;dashed=1;strokeColor=default;align=center;verticalAlign=middle;fontFamily=Helvetica;fontSize=11;fontColor=default;labelBackgroundColor=default;endArrow=classic;" parent="1" source="9xaBBuBTVZZ5uzn-Q917-144" target="06dGs_Eq-icP-Wr_ScK_-11" edge="1">
          <mxGeometry relative="1" as="geometry" />
        </mxCell>
        <mxCell id="qrhvOayP_8q4RVoLL4xc-35" value="&lt;sub&gt;&amp;lt;&amp;lt;include&amp;gt;&amp;gt;&lt;/sub&gt;" style="edgeLabel;html=1;align=center;verticalAlign=middle;resizable=0;points=[];fontFamily=Helvetica;fontSize=11;fontColor=default;labelBackgroundColor=default;" parent="qrhvOayP_8q4RVoLL4xc-34" connectable="0" vertex="1">
          <mxGeometry x="0.2044" y="1" relative="1" as="geometry">
            <mxPoint as="offset" />
          </mxGeometry>
        </mxCell>
        <mxCell id="qrhvOayP_8q4RVoLL4xc-36" style="edgeStyle=none;shape=connector;rounded=0;orthogonalLoop=1;jettySize=auto;html=1;exitX=1;exitY=1;exitDx=0;exitDy=0;dashed=1;strokeColor=default;align=center;verticalAlign=middle;fontFamily=Helvetica;fontSize=11;fontColor=default;labelBackgroundColor=default;endArrow=classic;" parent="1" source="9xaBBuBTVZZ5uzn-Q917-144" target="qrhvOayP_8q4RVoLL4xc-29" edge="1">
          <mxGeometry relative="1" as="geometry" />
        </mxCell>
        <mxCell id="qrhvOayP_8q4RVoLL4xc-37" value="&amp;lt;&amp;lt;include&amp;gt;&amp;gt;" style="edgeLabel;html=1;align=center;verticalAlign=middle;resizable=0;points=[];fontFamily=Helvetica;fontSize=11;fontColor=default;labelBackgroundColor=default;" parent="qrhvOayP_8q4RVoLL4xc-36" connectable="0" vertex="1">
          <mxGeometry x="-0.3765" y="1" relative="1" as="geometry">
            <mxPoint as="offset" />
          </mxGeometry>
        </mxCell>
        <mxCell id="9xaBBuBTVZZ5uzn-Q917-144" value="Enter Item" style="ellipse;whiteSpace=wrap;html=1;" parent="1" vertex="1">
          <mxGeometry x="-970" y="365" width="120" height="80" as="geometry" />
        </mxCell>
        <mxCell id="b2msT5hIl-dH37Tvwdyp-12" style="edgeStyle=none;shape=connector;rounded=0;orthogonalLoop=1;jettySize=auto;html=1;exitX=0.5;exitY=0;exitDx=0;exitDy=0;dashed=1;strokeColor=default;strokeWidth=1;align=center;verticalAlign=middle;fontFamily=Helvetica;fontSize=11;fontColor=default;labelBackgroundColor=default;endArrow=classic;endFill=1;" parent="1" source="9xaBBuBTVZZ5uzn-Q917-154" target="qrhvOayP_8q4RVoLL4xc-170" edge="1">
          <mxGeometry relative="1" as="geometry" />
        </mxCell>
        <mxCell id="9xaBBuBTVZZ5uzn-Q917-154" value="View Payment History" style="ellipse;whiteSpace=wrap;html=1;" parent="1" vertex="1">
          <mxGeometry x="-860" y="1185" width="120" height="80" as="geometry" />
        </mxCell>
        <mxCell id="06dGs_Eq-icP-Wr_ScK_-9" value="Enter Item Code" style="ellipse;whiteSpace=wrap;html=1;" parent="1" vertex="1">
          <mxGeometry x="-940" y="530" width="120" height="80" as="geometry" />
        </mxCell>
        <mxCell id="06dGs_Eq-icP-Wr_ScK_-10" value="Enter Item Name" style="ellipse;whiteSpace=wrap;html=1;" parent="1" vertex="1">
          <mxGeometry x="-770" y="570" width="120" height="80" as="geometry" />
        </mxCell>
        <mxCell id="06dGs_Eq-icP-Wr_ScK_-11" value="Enter Supplier Code" style="ellipse;whiteSpace=wrap;html=1;" parent="1" vertex="1">
          <mxGeometry x="-610" y="530" width="120" height="80" as="geometry" />
        </mxCell>
        <mxCell id="06dGs_Eq-icP-Wr_ScK_-25" value="Enter Supplier Code" style="ellipse;whiteSpace=wrap;html=1;" parent="1" vertex="1">
          <mxGeometry x="-420" y="195" width="120" height="80" as="geometry" />
        </mxCell>
        <mxCell id="06dGs_Eq-icP-Wr_ScK_-27" value="Enter Item Code" style="ellipse;whiteSpace=wrap;html=1;" parent="1" vertex="1">
          <mxGeometry x="-430" y="285" width="120" height="80" as="geometry" />
        </mxCell>
        <mxCell id="qrhvOayP_8q4RVoLL4xc-12" value="Wait for PO" style="ellipse;whiteSpace=wrap;html=1;" parent="1" vertex="1">
          <mxGeometry x="-440" y="1370" width="120" height="80" as="geometry" />
        </mxCell>
        <mxCell id="qrhvOayP_8q4RVoLL4xc-17" value="Enter Item Name" style="ellipse;whiteSpace=wrap;html=1;" parent="1" vertex="1">
          <mxGeometry x="-480" y="365" width="120" height="80" as="geometry" />
        </mxCell>
        <mxCell id="qrhvOayP_8q4RVoLL4xc-29" value="Enter Item Price" style="ellipse;whiteSpace=wrap;html=1;" parent="1" vertex="1">
          <mxGeometry x="-710" y="439.99999999999994" width="120" height="80" as="geometry" />
        </mxCell>
        <mxCell id="qrhvOayP_8q4RVoLL4xc-50" style="edgeStyle=none;shape=connector;rounded=0;orthogonalLoop=1;jettySize=auto;html=1;exitX=1;exitY=0.5;exitDx=0;exitDy=0;entryX=0;entryY=0.5;entryDx=0;entryDy=0;dashed=1;strokeColor=default;align=center;verticalAlign=middle;fontFamily=Helvetica;fontSize=11;fontColor=default;labelBackgroundColor=default;endArrow=classic;" parent="1" source="qrhvOayP_8q4RVoLL4xc-38" target="qrhvOayP_8q4RVoLL4xc-49" edge="1">
          <mxGeometry relative="1" as="geometry" />
        </mxCell>
        <mxCell id="qrhvOayP_8q4RVoLL4xc-51" value="&amp;lt;&amp;lt;include&amp;gt;&amp;gt;" style="edgeLabel;html=1;align=center;verticalAlign=middle;resizable=0;points=[];fontFamily=Helvetica;fontSize=11;fontColor=default;labelBackgroundColor=default;" parent="qrhvOayP_8q4RVoLL4xc-50" connectable="0" vertex="1">
          <mxGeometry x="-0.2377" y="3" relative="1" as="geometry">
            <mxPoint as="offset" />
          </mxGeometry>
        </mxCell>
        <mxCell id="qrhvOayP_8q4RVoLL4xc-38" value="Update Stock Level to Decrease" style="ellipse;whiteSpace=wrap;html=1;" parent="1" vertex="1">
          <mxGeometry x="-270" y="-40" width="120" height="80" as="geometry" />
        </mxCell>
        <mxCell id="qrhvOayP_8q4RVoLL4xc-39" style="edgeStyle=none;shape=connector;rounded=0;orthogonalLoop=1;jettySize=auto;html=1;exitX=0.5;exitY=0;exitDx=0;exitDy=0;entryX=0.5;entryY=1;entryDx=0;entryDy=0;dashed=1;strokeColor=default;align=center;verticalAlign=middle;fontFamily=Helvetica;fontSize=11;fontColor=default;labelBackgroundColor=default;endArrow=classic;" parent="1" source="qrhvOayP_8q4RVoLL4xc-38" target="9xaBBuBTVZZ5uzn-Q917-26" edge="1">
          <mxGeometry relative="1" as="geometry" />
        </mxCell>
        <mxCell id="qrhvOayP_8q4RVoLL4xc-40" value="&amp;lt;&amp;lt;extend&amp;gt;&amp;gt;" style="edgeLabel;html=1;align=center;verticalAlign=middle;resizable=0;points=[];fontFamily=Helvetica;fontSize=11;fontColor=default;labelBackgroundColor=default;" parent="qrhvOayP_8q4RVoLL4xc-39" connectable="0" vertex="1">
          <mxGeometry x="-0.1421" y="-1" relative="1" as="geometry">
            <mxPoint as="offset" />
          </mxGeometry>
        </mxCell>
        <mxCell id="qrhvOayP_8q4RVoLL4xc-41" value="Wait for PO" style="ellipse;whiteSpace=wrap;html=1;" parent="1" vertex="1">
          <mxGeometry x="-90" y="-170" width="120" height="80" as="geometry" />
        </mxCell>
        <mxCell id="qrhvOayP_8q4RVoLL4xc-49" value="Wait for DS" style="ellipse;whiteSpace=wrap;html=1;" parent="1" vertex="1">
          <mxGeometry x="-30" y="-60" width="120" height="80" as="geometry" />
        </mxCell>
        <mxCell id="qrhvOayP_8q4RVoLL4xc-52" value="Manage User" style="ellipse;whiteSpace=wrap;html=1;" parent="1" vertex="1">
          <mxGeometry x="1670" y="-70" width="120" height="80" as="geometry" />
        </mxCell>
        <mxCell id="qrhvOayP_8q4RVoLL4xc-55" style="edgeStyle=none;shape=connector;rounded=0;orthogonalLoop=1;jettySize=auto;html=1;exitX=1;exitY=0.5;exitDx=0;exitDy=0;entryX=0;entryY=0.5;entryDx=0;entryDy=0;dashed=1;strokeColor=default;align=center;verticalAlign=middle;fontFamily=Helvetica;fontSize=11;fontColor=default;labelBackgroundColor=default;endArrow=classic;" parent="1" source="qrhvOayP_8q4RVoLL4xc-53" target="qrhvOayP_8q4RVoLL4xc-54" edge="1">
          <mxGeometry relative="1" as="geometry" />
        </mxCell>
        <mxCell id="qrhvOayP_8q4RVoLL4xc-56" value="&amp;lt;&amp;lt;include&amp;gt;&amp;gt;" style="edgeLabel;html=1;align=center;verticalAlign=middle;resizable=0;points=[];fontFamily=Helvetica;fontSize=11;fontColor=default;labelBackgroundColor=default;" parent="qrhvOayP_8q4RVoLL4xc-55" connectable="0" vertex="1">
          <mxGeometry x="-0.3009" y="-1" relative="1" as="geometry">
            <mxPoint as="offset" />
          </mxGeometry>
        </mxCell>
        <mxCell id="qrhvOayP_8q4RVoLL4xc-53" value="Complete PR" style="ellipse;whiteSpace=wrap;html=1;" parent="1" vertex="1">
          <mxGeometry x="1420" y="1022.45" width="120" height="80" as="geometry" />
        </mxCell>
        <mxCell id="qrhvOayP_8q4RVoLL4xc-58" style="edgeStyle=none;shape=connector;rounded=0;orthogonalLoop=1;jettySize=auto;html=1;exitX=1;exitY=0.5;exitDx=0;exitDy=0;dashed=1;strokeColor=default;align=center;verticalAlign=middle;fontFamily=Helvetica;fontSize=11;fontColor=default;labelBackgroundColor=default;endArrow=classic;" parent="1" source="qrhvOayP_8q4RVoLL4xc-54" target="qrhvOayP_8q4RVoLL4xc-57" edge="1">
          <mxGeometry relative="1" as="geometry" />
        </mxCell>
        <mxCell id="qrhvOayP_8q4RVoLL4xc-59" value="&amp;lt;&amp;lt;include&amp;gt;&amp;gt;" style="edgeLabel;html=1;align=center;verticalAlign=middle;resizable=0;points=[];fontFamily=Helvetica;fontSize=11;fontColor=default;labelBackgroundColor=default;" parent="qrhvOayP_8q4RVoLL4xc-58" connectable="0" vertex="1">
          <mxGeometry x="-0.1973" y="2" relative="1" as="geometry">
            <mxPoint as="offset" />
          </mxGeometry>
        </mxCell>
        <mxCell id="qrhvOayP_8q4RVoLL4xc-54" value="Take Note of the Required Item" style="ellipse;whiteSpace=wrap;html=1;" parent="1" vertex="1">
          <mxGeometry x="1590" y="1030" width="120" height="80" as="geometry" />
        </mxCell>
        <mxCell id="qrhvOayP_8q4RVoLL4xc-57" value="Create New PR" style="ellipse;whiteSpace=wrap;html=1;" parent="1" vertex="1">
          <mxGeometry x="1750" y="1090" width="120" height="80" as="geometry" />
        </mxCell>
        <mxCell id="qrhvOayP_8q4RVoLL4xc-61" style="edgeStyle=none;shape=connector;rounded=0;orthogonalLoop=1;jettySize=auto;html=1;exitX=0.5;exitY=0;exitDx=0;exitDy=0;entryX=0.5;entryY=1;entryDx=0;entryDy=0;dashed=1;strokeColor=default;align=center;verticalAlign=middle;fontFamily=Helvetica;fontSize=11;fontColor=default;labelBackgroundColor=default;endArrow=classic;" parent="1" source="qrhvOayP_8q4RVoLL4xc-60" target="qrhvOayP_8q4RVoLL4xc-53" edge="1">
          <mxGeometry relative="1" as="geometry" />
        </mxCell>
        <mxCell id="qrhvOayP_8q4RVoLL4xc-62" value="&amp;lt;&amp;lt;extend&amp;gt;&amp;gt;" style="edgeLabel;html=1;align=center;verticalAlign=middle;resizable=0;points=[];fontFamily=Helvetica;fontSize=11;fontColor=default;labelBackgroundColor=default;" parent="qrhvOayP_8q4RVoLL4xc-61" connectable="0" vertex="1">
          <mxGeometry x="-0.1317" relative="1" as="geometry">
            <mxPoint as="offset" />
          </mxGeometry>
        </mxCell>
        <mxCell id="qrhvOayP_8q4RVoLL4xc-60" value="Cancel the PR" style="ellipse;whiteSpace=wrap;html=1;" parent="1" vertex="1">
          <mxGeometry x="1360" y="1140" width="120" height="80" as="geometry" />
        </mxCell>
        <mxCell id="qrhvOayP_8q4RVoLL4xc-65" style="edgeStyle=none;shape=connector;rounded=0;orthogonalLoop=1;jettySize=auto;html=1;exitX=0;exitY=0.5;exitDx=0;exitDy=0;entryX=1;entryY=0.5;entryDx=0;entryDy=0;dashed=1;strokeColor=default;align=center;verticalAlign=middle;fontFamily=Helvetica;fontSize=11;fontColor=default;labelBackgroundColor=default;endArrow=classic;" parent="1" source="qrhvOayP_8q4RVoLL4xc-63" target="qrhvOayP_8q4RVoLL4xc-64" edge="1">
          <mxGeometry relative="1" as="geometry" />
        </mxCell>
        <mxCell id="qrhvOayP_8q4RVoLL4xc-66" value="&amp;lt;&amp;lt;include&amp;gt;&amp;gt;" style="edgeLabel;html=1;align=center;verticalAlign=middle;resizable=0;points=[];fontFamily=Helvetica;fontSize=11;fontColor=default;labelBackgroundColor=default;" parent="qrhvOayP_8q4RVoLL4xc-65" connectable="0" vertex="1">
          <mxGeometry x="0.19" y="-2" relative="1" as="geometry">
            <mxPoint as="offset" />
          </mxGeometry>
        </mxCell>
        <mxCell id="qrhvOayP_8q4RVoLL4xc-63" value="Generate Sales Report" style="ellipse;whiteSpace=wrap;html=1;" parent="1" vertex="1">
          <mxGeometry x="860" y="1185" width="120" height="80" as="geometry" />
        </mxCell>
        <mxCell id="qrhvOayP_8q4RVoLL4xc-68" style="edgeStyle=none;shape=connector;rounded=0;orthogonalLoop=1;jettySize=auto;html=1;exitX=0;exitY=0.5;exitDx=0;exitDy=0;entryX=1;entryY=0.5;entryDx=0;entryDy=0;dashed=1;strokeColor=default;align=center;verticalAlign=middle;fontFamily=Helvetica;fontSize=11;fontColor=default;labelBackgroundColor=default;endArrow=classic;" parent="1" source="qrhvOayP_8q4RVoLL4xc-64" target="qrhvOayP_8q4RVoLL4xc-67" edge="1">
          <mxGeometry relative="1" as="geometry" />
        </mxCell>
        <mxCell id="qrhvOayP_8q4RVoLL4xc-69" value="&amp;lt;&amp;lt;include&amp;gt;&amp;gt;" style="edgeLabel;html=1;align=center;verticalAlign=middle;resizable=0;points=[];fontFamily=Helvetica;fontSize=11;fontColor=default;labelBackgroundColor=default;" parent="qrhvOayP_8q4RVoLL4xc-68" connectable="0" vertex="1">
          <mxGeometry x="0.3085" y="-2" relative="1" as="geometry">
            <mxPoint as="offset" />
          </mxGeometry>
        </mxCell>
        <mxCell id="qrhvOayP_8q4RVoLL4xc-64" value="Complete Daily-Sales Record" style="ellipse;whiteSpace=wrap;html=1;" parent="1" vertex="1">
          <mxGeometry x="730" y="1097.5" width="120" height="80" as="geometry" />
        </mxCell>
        <mxCell id="qrhvOayP_8q4RVoLL4xc-74" style="edgeStyle=none;shape=connector;rounded=0;orthogonalLoop=1;jettySize=auto;html=1;exitX=0;exitY=0.5;exitDx=0;exitDy=0;entryX=0;entryY=0;entryDx=0;entryDy=0;dashed=1;strokeColor=default;align=center;verticalAlign=middle;fontFamily=Helvetica;fontSize=11;fontColor=default;labelBackgroundColor=default;endArrow=classic;" parent="1" source="qrhvOayP_8q4RVoLL4xc-67" target="qrhvOayP_8q4RVoLL4xc-73" edge="1">
          <mxGeometry relative="1" as="geometry" />
        </mxCell>
        <mxCell id="qrhvOayP_8q4RVoLL4xc-75" value="&amp;lt;&amp;lt;include&amp;gt;&amp;gt;" style="edgeLabel;html=1;align=center;verticalAlign=middle;resizable=0;points=[];fontFamily=Helvetica;fontSize=11;fontColor=default;labelBackgroundColor=default;" parent="qrhvOayP_8q4RVoLL4xc-74" connectable="0" vertex="1">
          <mxGeometry x="0.2534" y="-5" relative="1" as="geometry">
            <mxPoint as="offset" />
          </mxGeometry>
        </mxCell>
        <mxCell id="qrhvOayP_8q4RVoLL4xc-67" value="Take Note of Today Sales Number of Item" style="ellipse;whiteSpace=wrap;html=1;" parent="1" vertex="1">
          <mxGeometry x="520" y="1048.77" width="120" height="80" as="geometry" />
        </mxCell>
        <mxCell id="qrhvOayP_8q4RVoLL4xc-71" style="edgeStyle=none;shape=connector;rounded=0;orthogonalLoop=1;jettySize=auto;html=1;exitX=0.5;exitY=0;exitDx=0;exitDy=0;entryX=0.5;entryY=1;entryDx=0;entryDy=0;dashed=1;strokeColor=default;align=center;verticalAlign=middle;fontFamily=Helvetica;fontSize=11;fontColor=default;labelBackgroundColor=default;endArrow=classic;" parent="1" source="qrhvOayP_8q4RVoLL4xc-70" target="qrhvOayP_8q4RVoLL4xc-64" edge="1">
          <mxGeometry relative="1" as="geometry" />
        </mxCell>
        <mxCell id="qrhvOayP_8q4RVoLL4xc-72" value="&amp;lt;&amp;lt;entend&amp;gt;&amp;gt;" style="edgeLabel;html=1;align=center;verticalAlign=middle;resizable=0;points=[];fontFamily=Helvetica;fontSize=11;fontColor=default;labelBackgroundColor=default;" parent="qrhvOayP_8q4RVoLL4xc-71" connectable="0" vertex="1">
          <mxGeometry x="0.2333" y="-1" relative="1" as="geometry">
            <mxPoint as="offset" />
          </mxGeometry>
        </mxCell>
        <mxCell id="qrhvOayP_8q4RVoLL4xc-70" value="Cancel the Daily-Sales Record" style="ellipse;whiteSpace=wrap;html=1;" parent="1" vertex="1">
          <mxGeometry x="710" y="1240" width="120" height="80" as="geometry" />
        </mxCell>
        <mxCell id="qrhvOayP_8q4RVoLL4xc-73" value="Create New Daily-Sales" style="ellipse;whiteSpace=wrap;html=1;" parent="1" vertex="1">
          <mxGeometry x="490" y="1185" width="120" height="80" as="geometry" />
        </mxCell>
        <mxCell id="qrhvOayP_8q4RVoLL4xc-78" style="edgeStyle=none;shape=connector;rounded=0;orthogonalLoop=1;jettySize=auto;html=1;exitX=1;exitY=0.5;exitDx=0;exitDy=0;dashed=1;strokeColor=default;align=center;verticalAlign=middle;fontFamily=Helvetica;fontSize=11;fontColor=default;labelBackgroundColor=default;endArrow=classic;" parent="1" source="qrhvOayP_8q4RVoLL4xc-76" target="qrhvOayP_8q4RVoLL4xc-77" edge="1">
          <mxGeometry relative="1" as="geometry" />
        </mxCell>
        <mxCell id="qrhvOayP_8q4RVoLL4xc-79" value="&amp;lt;&amp;lt;include&amp;gt;&amp;gt;" style="edgeLabel;html=1;align=center;verticalAlign=middle;resizable=0;points=[];fontFamily=Helvetica;fontSize=11;fontColor=default;labelBackgroundColor=default;" parent="qrhvOayP_8q4RVoLL4xc-78" connectable="0" vertex="1">
          <mxGeometry x="-0.3579" y="1" relative="1" as="geometry">
            <mxPoint as="offset" />
          </mxGeometry>
        </mxCell>
        <mxCell id="qrhvOayP_8q4RVoLL4xc-76" value="Complete PO" style="ellipse;whiteSpace=wrap;html=1;" parent="1" vertex="1">
          <mxGeometry x="1350" y="325" width="120" height="80" as="geometry" />
        </mxCell>
        <mxCell id="qrhvOayP_8q4RVoLL4xc-82" style="edgeStyle=none;shape=connector;rounded=0;orthogonalLoop=1;jettySize=auto;html=1;exitX=1;exitY=0.5;exitDx=0;exitDy=0;dashed=1;strokeColor=default;align=center;verticalAlign=middle;fontFamily=Helvetica;fontSize=11;fontColor=default;labelBackgroundColor=default;endArrow=classic;" parent="1" source="qrhvOayP_8q4RVoLL4xc-77" target="qrhvOayP_8q4RVoLL4xc-80" edge="1">
          <mxGeometry relative="1" as="geometry" />
        </mxCell>
        <mxCell id="qrhvOayP_8q4RVoLL4xc-83" value="&amp;lt;&amp;lt;include&amp;gt;&amp;gt;" style="edgeLabel;html=1;align=center;verticalAlign=middle;resizable=0;points=[];fontFamily=Helvetica;fontSize=11;fontColor=default;labelBackgroundColor=default;" parent="qrhvOayP_8q4RVoLL4xc-82" connectable="0" vertex="1">
          <mxGeometry x="-0.3629" y="1" relative="1" as="geometry">
            <mxPoint as="offset" />
          </mxGeometry>
        </mxCell>
        <mxCell id="qrhvOayP_8q4RVoLL4xc-77" value="Fetch PR" style="ellipse;whiteSpace=wrap;html=1;" parent="1" vertex="1">
          <mxGeometry x="1510" y="295" width="120" height="80" as="geometry" />
        </mxCell>
        <mxCell id="qrhvOayP_8q4RVoLL4xc-80" value="Wait For PR" style="ellipse;whiteSpace=wrap;html=1;" parent="1" vertex="1">
          <mxGeometry x="1670" y="333.77" width="120" height="80" as="geometry" />
        </mxCell>
        <mxCell id="qrhvOayP_8q4RVoLL4xc-85" style="edgeStyle=none;shape=connector;rounded=0;orthogonalLoop=1;jettySize=auto;html=1;exitX=0;exitY=0.5;exitDx=0;exitDy=0;entryX=1;entryY=1;entryDx=0;entryDy=0;dashed=1;strokeColor=default;align=center;verticalAlign=middle;fontFamily=Helvetica;fontSize=11;fontColor=default;labelBackgroundColor=default;endArrow=classic;" parent="1" source="qrhvOayP_8q4RVoLL4xc-84" target="qrhvOayP_8q4RVoLL4xc-76" edge="1">
          <mxGeometry relative="1" as="geometry" />
        </mxCell>
        <mxCell id="qrhvOayP_8q4RVoLL4xc-88" value="&amp;lt;&amp;lt;extend&amp;gt;&amp;gt;" style="edgeLabel;html=1;align=center;verticalAlign=middle;resizable=0;points=[];fontFamily=Helvetica;fontSize=11;fontColor=default;labelBackgroundColor=default;" parent="qrhvOayP_8q4RVoLL4xc-85" connectable="0" vertex="1">
          <mxGeometry x="0.0457" y="-1" relative="1" as="geometry">
            <mxPoint as="offset" />
          </mxGeometry>
        </mxCell>
        <mxCell id="qrhvOayP_8q4RVoLL4xc-84" value="Cancel PO" style="ellipse;whiteSpace=wrap;html=1;" parent="1" vertex="1">
          <mxGeometry x="1625" y="435" width="120" height="80" as="geometry" />
        </mxCell>
        <mxCell id="qrhvOayP_8q4RVoLL4xc-118" style="edgeStyle=none;shape=connector;rounded=0;orthogonalLoop=1;jettySize=auto;html=1;strokeColor=default;strokeWidth=2;align=center;verticalAlign=middle;fontFamily=Helvetica;fontSize=11;fontColor=default;labelBackgroundColor=default;endArrow=none;endFill=0;" parent="1" source="9xaBBuBTVZZ5uzn-Q917-2" target="9xaBBuBTVZZ5uzn-Q917-57" edge="1">
          <mxGeometry relative="1" as="geometry" />
        </mxCell>
        <mxCell id="qrhvOayP_8q4RVoLL4xc-89" value="View Stock Levels" style="ellipse;whiteSpace=wrap;html=1;fontFamily=Helvetica;fontSize=11;fontColor=default;labelBackgroundColor=default;" parent="1" vertex="1">
          <mxGeometry x="-60" y="115" width="120" height="80" as="geometry" />
        </mxCell>
        <mxCell id="qrhvOayP_8q4RVoLL4xc-140" style="edgeStyle=none;shape=connector;rounded=0;orthogonalLoop=1;jettySize=auto;html=1;exitX=0;exitY=0;exitDx=0;exitDy=0;entryX=1;entryY=0.5;entryDx=0;entryDy=0;dashed=1;strokeColor=default;strokeWidth=1;align=center;verticalAlign=middle;fontFamily=Helvetica;fontSize=11;fontColor=default;labelBackgroundColor=default;endArrow=classic;endFill=1;" parent="1" source="qrhvOayP_8q4RVoLL4xc-90" target="qrhvOayP_8q4RVoLL4xc-101" edge="1">
          <mxGeometry relative="1" as="geometry" />
        </mxCell>
        <mxCell id="qrhvOayP_8q4RVoLL4xc-90" value="View Item List" style="ellipse;whiteSpace=wrap;html=1;fontFamily=Helvetica;fontSize=11;fontColor=default;labelBackgroundColor=default;" parent="1" vertex="1">
          <mxGeometry x="920" y="410" width="120" height="80" as="geometry" />
        </mxCell>
        <mxCell id="qrhvOayP_8q4RVoLL4xc-241" style="edgeStyle=none;shape=connector;rounded=0;orthogonalLoop=1;jettySize=auto;html=1;exitX=1;exitY=0;exitDx=0;exitDy=0;entryX=0;entryY=0.5;entryDx=0;entryDy=0;dashed=1;strokeColor=default;strokeWidth=1;align=center;verticalAlign=middle;fontFamily=Helvetica;fontSize=11;fontColor=default;labelBackgroundColor=default;endArrow=classic;endFill=1;" parent="1" source="qrhvOayP_8q4RVoLL4xc-91" target="qrhvOayP_8q4RVoLL4xc-97" edge="1">
          <mxGeometry relative="1" as="geometry" />
        </mxCell>
        <mxCell id="qrhvOayP_8q4RVoLL4xc-242" value="&amp;lt;&amp;lt;include&amp;gt;&amp;gt;" style="edgeLabel;html=1;align=center;verticalAlign=middle;resizable=0;points=[];fontFamily=Helvetica;fontSize=11;fontColor=default;labelBackgroundColor=default;" parent="qrhvOayP_8q4RVoLL4xc-241" connectable="0" vertex="1">
          <mxGeometry x="-0.3352" y="6" relative="1" as="geometry">
            <mxPoint x="-1" as="offset" />
          </mxGeometry>
        </mxCell>
        <mxCell id="qrhvOayP_8q4RVoLL4xc-91" value="View Daily Sales" style="ellipse;whiteSpace=wrap;html=1;fontFamily=Helvetica;fontSize=11;fontColor=default;labelBackgroundColor=default;" parent="1" vertex="1">
          <mxGeometry x="-740" y="-430.00000000000006" width="120" height="80" as="geometry" />
        </mxCell>
        <mxCell id="qrhvOayP_8q4RVoLL4xc-141" style="edgeStyle=none;shape=connector;rounded=0;orthogonalLoop=1;jettySize=auto;html=1;exitX=0;exitY=0;exitDx=0;exitDy=0;dashed=1;strokeColor=default;strokeWidth=1;align=center;verticalAlign=middle;fontFamily=Helvetica;fontSize=11;fontColor=default;labelBackgroundColor=default;endArrow=classic;endFill=1;" parent="1" source="qrhvOayP_8q4RVoLL4xc-92" edge="1">
          <mxGeometry relative="1" as="geometry">
            <mxPoint x="780" y="400" as="targetPoint" />
          </mxGeometry>
        </mxCell>
        <mxCell id="qrhvOayP_8q4RVoLL4xc-92" value="View Stock Levels" style="ellipse;whiteSpace=wrap;html=1;fontFamily=Helvetica;fontSize=11;fontColor=default;labelBackgroundColor=default;" parent="1" vertex="1">
          <mxGeometry x="1050" y="350" width="120" height="80" as="geometry" />
        </mxCell>
        <mxCell id="qrhvOayP_8q4RVoLL4xc-120" style="edgeStyle=none;shape=connector;rounded=0;orthogonalLoop=1;jettySize=auto;html=1;exitX=1;exitY=0.5;exitDx=0;exitDy=0;strokeColor=default;strokeWidth=2;align=center;verticalAlign=middle;fontFamily=Helvetica;fontSize=11;fontColor=default;labelBackgroundColor=default;endArrow=none;endFill=0;" parent="1" source="qrhvOayP_8q4RVoLL4xc-93" target="9xaBBuBTVZZ5uzn-Q917-57" edge="1">
          <mxGeometry relative="1" as="geometry" />
        </mxCell>
        <mxCell id="qrhvOayP_8q4RVoLL4xc-93" value="View Item List" style="ellipse;whiteSpace=wrap;html=1;fontFamily=Helvetica;fontSize=11;fontColor=default;labelBackgroundColor=default;" parent="1" vertex="1">
          <mxGeometry x="-400" y="-5" width="120" height="80" as="geometry" />
        </mxCell>
        <mxCell id="qrhvOayP_8q4RVoLL4xc-94" value="View&amp;nbsp; Supplier List" style="ellipse;whiteSpace=wrap;html=1;fontFamily=Helvetica;fontSize=11;fontColor=default;labelBackgroundColor=default;" parent="1" vertex="1">
          <mxGeometry x="-210" y="45" width="120" height="80" as="geometry" />
        </mxCell>
        <mxCell id="qrhvOayP_8q4RVoLL4xc-238" style="edgeStyle=none;shape=connector;rounded=0;orthogonalLoop=1;jettySize=auto;html=1;exitX=1;exitY=0.5;exitDx=0;exitDy=0;entryX=0;entryY=0.5;entryDx=0;entryDy=0;strokeColor=default;strokeWidth=1;align=center;verticalAlign=middle;fontFamily=Helvetica;fontSize=11;fontColor=default;labelBackgroundColor=default;endArrow=classic;endFill=1;dashed=1;" parent="1" source="qrhvOayP_8q4RVoLL4xc-95" target="qrhvOayP_8q4RVoLL4xc-97" edge="1">
          <mxGeometry relative="1" as="geometry" />
        </mxCell>
        <mxCell id="qrhvOayP_8q4RVoLL4xc-239" value="&amp;lt;&amp;lt;include&amp;gt;&amp;gt;" style="edgeLabel;html=1;align=center;verticalAlign=middle;resizable=0;points=[];fontFamily=Helvetica;fontSize=11;fontColor=default;labelBackgroundColor=default;" parent="qrhvOayP_8q4RVoLL4xc-238" connectable="0" vertex="1">
          <mxGeometry x="-0.212" y="3" relative="1" as="geometry">
            <mxPoint as="offset" />
          </mxGeometry>
        </mxCell>
        <mxCell id="qrhvOayP_8q4RVoLL4xc-95" value="View PR" style="ellipse;whiteSpace=wrap;html=1;fontFamily=Helvetica;fontSize=11;fontColor=default;labelBackgroundColor=default;" parent="1" vertex="1">
          <mxGeometry x="-810" y="-520" width="120" height="80" as="geometry" />
        </mxCell>
        <mxCell id="qrhvOayP_8q4RVoLL4xc-121" style="edgeStyle=none;shape=connector;rounded=0;orthogonalLoop=1;jettySize=auto;html=1;exitX=1;exitY=1;exitDx=0;exitDy=0;strokeColor=default;strokeWidth=2;align=center;verticalAlign=middle;fontFamily=Helvetica;fontSize=11;fontColor=default;labelBackgroundColor=default;endArrow=none;endFill=0;" parent="1" source="qrhvOayP_8q4RVoLL4xc-96" target="9xaBBuBTVZZ5uzn-Q917-57" edge="1">
          <mxGeometry relative="1" as="geometry" />
        </mxCell>
        <mxCell id="qrhvOayP_8q4RVoLL4xc-96" value="Update Profile" style="ellipse;whiteSpace=wrap;html=1;fontFamily=Helvetica;fontSize=11;fontColor=default;labelBackgroundColor=default;" parent="1" vertex="1">
          <mxGeometry x="-330" y="-290" width="120" height="80" as="geometry" />
        </mxCell>
        <mxCell id="qrhvOayP_8q4RVoLL4xc-97" value="Open a Window called &quot;More...&quot;" style="ellipse;whiteSpace=wrap;html=1;fontFamily=Helvetica;fontSize=11;fontColor=default;labelBackgroundColor=default;" parent="1" vertex="1">
          <mxGeometry x="-360" y="-520" width="120" height="80" as="geometry" />
        </mxCell>
        <mxCell id="qrhvOayP_8q4RVoLL4xc-101" value="Open a Window called &quot;More...&quot;" style="ellipse;whiteSpace=wrap;html=1;fontFamily=Helvetica;fontSize=11;fontColor=default;labelBackgroundColor=default;" parent="1" vertex="1">
          <mxGeometry x="680" y="380" width="120" height="80" as="geometry" />
        </mxCell>
        <mxCell id="qrhvOayP_8q4RVoLL4xc-123" style="edgeStyle=none;shape=connector;rounded=0;orthogonalLoop=1;jettySize=auto;html=1;exitX=0.5;exitY=1;exitDx=0;exitDy=0;strokeColor=default;strokeWidth=2;align=center;verticalAlign=middle;fontFamily=Helvetica;fontSize=11;fontColor=default;labelBackgroundColor=default;endArrow=none;endFill=0;" parent="1" source="qrhvOayP_8q4RVoLL4xc-102" target="9xaBBuBTVZZ5uzn-Q917-57" edge="1">
          <mxGeometry relative="1" as="geometry" />
        </mxCell>
        <mxCell id="qrhvOayP_8q4RVoLL4xc-243" style="edgeStyle=none;shape=connector;rounded=0;orthogonalLoop=1;jettySize=auto;html=1;exitX=1;exitY=0;exitDx=0;exitDy=0;dashed=1;strokeColor=default;strokeWidth=1;align=center;verticalAlign=middle;fontFamily=Helvetica;fontSize=11;fontColor=default;labelBackgroundColor=default;endArrow=classic;endFill=1;" parent="1" source="qrhvOayP_8q4RVoLL4xc-102" target="qrhvOayP_8q4RVoLL4xc-97" edge="1">
          <mxGeometry relative="1" as="geometry" />
        </mxCell>
        <mxCell id="qrhvOayP_8q4RVoLL4xc-244" value="&amp;lt;&amp;lt;include&amp;gt;&amp;gt;" style="edgeLabel;html=1;align=center;verticalAlign=middle;resizable=0;points=[];fontFamily=Helvetica;fontSize=11;fontColor=default;labelBackgroundColor=default;" parent="qrhvOayP_8q4RVoLL4xc-243" connectable="0" vertex="1">
          <mxGeometry x="-0.1822" y="1" relative="1" as="geometry">
            <mxPoint as="offset" />
          </mxGeometry>
        </mxCell>
        <mxCell id="qrhvOayP_8q4RVoLL4xc-102" value="View PO" style="ellipse;whiteSpace=wrap;html=1;fontFamily=Helvetica;fontSize=11;fontColor=default;labelBackgroundColor=default;" parent="1" vertex="1">
          <mxGeometry x="-610" y="-370" width="120" height="80" as="geometry" />
        </mxCell>
        <mxCell id="qrhvOayP_8q4RVoLL4xc-124" style="edgeStyle=none;shape=connector;rounded=0;orthogonalLoop=1;jettySize=auto;html=1;exitX=0.5;exitY=1;exitDx=0;exitDy=0;strokeColor=default;strokeWidth=2;align=center;verticalAlign=middle;fontFamily=Helvetica;fontSize=11;fontColor=default;labelBackgroundColor=default;endArrow=none;endFill=0;" parent="1" source="qrhvOayP_8q4RVoLL4xc-103" target="9xaBBuBTVZZ5uzn-Q917-57" edge="1">
          <mxGeometry relative="1" as="geometry" />
        </mxCell>
        <mxCell id="qrhvOayP_8q4RVoLL4xc-245" style="edgeStyle=none;shape=connector;rounded=0;orthogonalLoop=1;jettySize=auto;html=1;exitX=1;exitY=0;exitDx=0;exitDy=0;dashed=1;strokeColor=default;strokeWidth=1;align=center;verticalAlign=middle;fontFamily=Helvetica;fontSize=11;fontColor=default;labelBackgroundColor=default;endArrow=classic;endFill=1;" parent="1" source="qrhvOayP_8q4RVoLL4xc-103" target="qrhvOayP_8q4RVoLL4xc-97" edge="1">
          <mxGeometry relative="1" as="geometry" />
        </mxCell>
        <mxCell id="qrhvOayP_8q4RVoLL4xc-246" value="&amp;lt;&amp;lt;include&amp;gt;&amp;gt;" style="edgeLabel;html=1;align=center;verticalAlign=middle;resizable=0;points=[];fontFamily=Helvetica;fontSize=11;fontColor=default;labelBackgroundColor=default;" parent="qrhvOayP_8q4RVoLL4xc-245" connectable="0" vertex="1">
          <mxGeometry x="-0.0115" y="4" relative="1" as="geometry">
            <mxPoint as="offset" />
          </mxGeometry>
        </mxCell>
        <mxCell id="qrhvOayP_8q4RVoLL4xc-103" value="View Sales Report" style="ellipse;whiteSpace=wrap;html=1;fontFamily=Helvetica;fontSize=11;fontColor=default;labelBackgroundColor=default;" parent="1" vertex="1">
          <mxGeometry x="-510" y="-310" width="120" height="80" as="geometry" />
        </mxCell>
        <mxCell id="qrhvOayP_8q4RVoLL4xc-139" style="edgeStyle=none;shape=connector;rounded=0;orthogonalLoop=1;jettySize=auto;html=1;exitX=0;exitY=0.5;exitDx=0;exitDy=0;entryX=0;entryY=1;entryDx=0;entryDy=0;dashed=1;strokeColor=default;strokeWidth=1;align=center;verticalAlign=middle;fontFamily=Helvetica;fontSize=11;fontColor=default;labelBackgroundColor=default;endArrow=classic;endFill=1;" parent="1" source="qrhvOayP_8q4RVoLL4xc-105" target="qrhvOayP_8q4RVoLL4xc-101" edge="1">
          <mxGeometry relative="1" as="geometry" />
        </mxCell>
        <mxCell id="qrhvOayP_8q4RVoLL4xc-105" value="View Supplier List" style="ellipse;whiteSpace=wrap;html=1;fontFamily=Helvetica;fontSize=11;fontColor=default;labelBackgroundColor=default;" parent="1" vertex="1">
          <mxGeometry x="780" y="827.5" width="120" height="80" as="geometry" />
        </mxCell>
        <mxCell id="qrhvOayP_8q4RVoLL4xc-116" style="shape=connector;rounded=0;orthogonalLoop=1;jettySize=auto;html=1;exitX=0.5;exitY=0;exitDx=0;exitDy=0;entryX=0.5;entryY=0.5;entryDx=0;entryDy=0;entryPerimeter=0;strokeColor=default;align=center;verticalAlign=middle;fontFamily=Helvetica;fontSize=11;fontColor=default;labelBackgroundColor=default;endArrow=none;endFill=0;strokeWidth=2;" parent="1" source="9xaBBuBTVZZ5uzn-Q917-144" target="9xaBBuBTVZZ5uzn-Q917-57" edge="1">
          <mxGeometry relative="1" as="geometry" />
        </mxCell>
        <mxCell id="qrhvOayP_8q4RVoLL4xc-122" style="edgeStyle=none;shape=connector;rounded=0;orthogonalLoop=1;jettySize=auto;html=1;exitX=0.5;exitY=1;exitDx=0;exitDy=0;entryX=0.5;entryY=0.5;entryDx=0;entryDy=0;entryPerimeter=0;strokeColor=default;strokeWidth=2;align=center;verticalAlign=middle;fontFamily=Helvetica;fontSize=11;fontColor=default;labelBackgroundColor=default;endArrow=none;endFill=0;" parent="1" source="qrhvOayP_8q4RVoLL4xc-91" target="9xaBBuBTVZZ5uzn-Q917-57" edge="1">
          <mxGeometry relative="1" as="geometry" />
        </mxCell>
        <mxCell id="qrhvOayP_8q4RVoLL4xc-135" style="edgeStyle=none;shape=connector;rounded=0;orthogonalLoop=1;jettySize=auto;html=1;exitX=0;exitY=0;exitDx=0;exitDy=0;entryX=1;entryY=1;entryDx=0;entryDy=0;strokeColor=default;strokeWidth=1;align=center;verticalAlign=middle;fontFamily=Helvetica;fontSize=11;fontColor=default;labelBackgroundColor=default;endArrow=classic;endFill=1;dashed=1;" parent="1" source="qrhvOayP_8q4RVoLL4xc-127" target="qrhvOayP_8q4RVoLL4xc-101" edge="1">
          <mxGeometry relative="1" as="geometry" />
        </mxCell>
        <mxCell id="qrhvOayP_8q4RVoLL4xc-202" style="edgeStyle=none;shape=connector;rounded=0;orthogonalLoop=1;jettySize=auto;html=1;exitX=1;exitY=0.5;exitDx=0;exitDy=0;strokeColor=default;strokeWidth=2;align=center;verticalAlign=middle;fontFamily=Helvetica;fontSize=11;fontColor=default;labelBackgroundColor=default;endArrow=none;endFill=0;" parent="1" source="qrhvOayP_8q4RVoLL4xc-127" target="9xaBBuBTVZZ5uzn-Q917-58" edge="1">
          <mxGeometry relative="1" as="geometry" />
        </mxCell>
        <mxCell id="qrhvOayP_8q4RVoLL4xc-127" value="Update Profile" style="ellipse;whiteSpace=wrap;html=1;fontFamily=Helvetica;fontSize=11;fontColor=default;labelBackgroundColor=default;" parent="1" vertex="1">
          <mxGeometry x="820" y="490" width="120" height="80" as="geometry" />
        </mxCell>
        <mxCell id="qrhvOayP_8q4RVoLL4xc-137" style="edgeStyle=none;shape=connector;rounded=0;orthogonalLoop=1;jettySize=auto;html=1;exitX=0;exitY=0;exitDx=0;exitDy=0;dashed=1;strokeColor=default;strokeWidth=1;align=center;verticalAlign=middle;fontFamily=Helvetica;fontSize=11;fontColor=default;labelBackgroundColor=default;endArrow=classic;endFill=1;" parent="1" source="qrhvOayP_8q4RVoLL4xc-128" target="qrhvOayP_8q4RVoLL4xc-101" edge="1">
          <mxGeometry relative="1" as="geometry" />
        </mxCell>
        <mxCell id="qrhvOayP_8q4RVoLL4xc-128" value="View Daily Sales" style="ellipse;whiteSpace=wrap;html=1;fontFamily=Helvetica;fontSize=11;fontColor=default;labelBackgroundColor=default;" parent="1" vertex="1">
          <mxGeometry x="800" y="602.46" width="120" height="80" as="geometry" />
        </mxCell>
        <mxCell id="qrhvOayP_8q4RVoLL4xc-138" style="edgeStyle=none;shape=connector;rounded=0;orthogonalLoop=1;jettySize=auto;html=1;exitX=0;exitY=0.5;exitDx=0;exitDy=0;dashed=1;strokeColor=default;strokeWidth=1;align=center;verticalAlign=middle;fontFamily=Helvetica;fontSize=11;fontColor=default;labelBackgroundColor=default;endArrow=classic;endFill=1;" parent="1" source="qrhvOayP_8q4RVoLL4xc-129" target="qrhvOayP_8q4RVoLL4xc-101" edge="1">
          <mxGeometry relative="1" as="geometry" />
        </mxCell>
        <mxCell id="qrhvOayP_8q4RVoLL4xc-129" value="View&amp;nbsp; Sales Report" style="ellipse;whiteSpace=wrap;html=1;fontFamily=Helvetica;fontSize=11;fontColor=default;labelBackgroundColor=default;" parent="1" vertex="1">
          <mxGeometry x="790" y="710" width="120" height="80" as="geometry" />
        </mxCell>
        <mxCell id="qrhvOayP_8q4RVoLL4xc-130" value="View PO" style="ellipse;whiteSpace=wrap;html=1;fontFamily=Helvetica;fontSize=11;fontColor=default;labelBackgroundColor=default;" parent="1" vertex="1">
          <mxGeometry x="860" y="940" width="120" height="80" as="geometry" />
        </mxCell>
        <mxCell id="qrhvOayP_8q4RVoLL4xc-131" value="View PR" style="ellipse;whiteSpace=wrap;html=1;fontFamily=Helvetica;fontSize=11;fontColor=default;labelBackgroundColor=default;" parent="1" vertex="1">
          <mxGeometry x="980" y="1010" width="120" height="80" as="geometry" />
        </mxCell>
        <mxCell id="qrhvOayP_8q4RVoLL4xc-157" style="edgeStyle=none;shape=connector;rounded=0;orthogonalLoop=1;jettySize=auto;html=1;exitX=0.5;exitY=1;exitDx=0;exitDy=0;entryX=0.5;entryY=0;entryDx=0;entryDy=0;dashed=1;strokeColor=default;strokeWidth=1;align=center;verticalAlign=middle;fontFamily=Helvetica;fontSize=11;fontColor=default;labelBackgroundColor=default;endArrow=classic;endFill=1;" parent="1" source="qrhvOayP_8q4RVoLL4xc-142" target="qrhvOayP_8q4RVoLL4xc-150" edge="1">
          <mxGeometry relative="1" as="geometry" />
        </mxCell>
        <mxCell id="qrhvOayP_8q4RVoLL4xc-158" value="&amp;lt;&amp;lt;include&amp;gt;&amp;gt;" style="edgeLabel;html=1;align=center;verticalAlign=middle;resizable=0;points=[];fontFamily=Helvetica;fontSize=11;fontColor=default;labelBackgroundColor=default;" parent="qrhvOayP_8q4RVoLL4xc-157" connectable="0" vertex="1">
          <mxGeometry x="0.0321" y="-1" relative="1" as="geometry">
            <mxPoint x="-1" as="offset" />
          </mxGeometry>
        </mxCell>
        <mxCell id="qrhvOayP_8q4RVoLL4xc-142" value="View Stock Levels" style="ellipse;whiteSpace=wrap;html=1;fontFamily=Helvetica;fontSize=11;fontColor=default;labelBackgroundColor=default;" parent="1" vertex="1">
          <mxGeometry x="1350" y="1710" width="120" height="80" as="geometry" />
        </mxCell>
        <mxCell id="qrhvOayP_8q4RVoLL4xc-159" style="edgeStyle=none;shape=connector;rounded=0;orthogonalLoop=1;jettySize=auto;html=1;exitX=0.5;exitY=1;exitDx=0;exitDy=0;entryX=1;entryY=0;entryDx=0;entryDy=0;dashed=1;strokeColor=default;strokeWidth=1;align=center;verticalAlign=middle;fontFamily=Helvetica;fontSize=11;fontColor=default;labelBackgroundColor=default;endArrow=classic;endFill=1;" parent="1" source="qrhvOayP_8q4RVoLL4xc-143" target="qrhvOayP_8q4RVoLL4xc-150" edge="1">
          <mxGeometry relative="1" as="geometry" />
        </mxCell>
        <mxCell id="qrhvOayP_8q4RVoLL4xc-160" value="&amp;lt;&amp;lt;include&amp;gt;&amp;gt;" style="edgeLabel;html=1;align=center;verticalAlign=middle;resizable=0;points=[];fontFamily=Helvetica;fontSize=11;fontColor=default;labelBackgroundColor=default;" parent="qrhvOayP_8q4RVoLL4xc-159" connectable="0" vertex="1">
          <mxGeometry x="0.0947" y="-1" relative="1" as="geometry">
            <mxPoint as="offset" />
          </mxGeometry>
        </mxCell>
        <mxCell id="qrhvOayP_8q4RVoLL4xc-143" value="View Item List" style="ellipse;whiteSpace=wrap;html=1;fontFamily=Helvetica;fontSize=11;fontColor=default;labelBackgroundColor=default;" parent="1" vertex="1">
          <mxGeometry x="1380" y="1810" width="120" height="80" as="geometry" />
        </mxCell>
        <mxCell id="qrhvOayP_8q4RVoLL4xc-155" style="edgeStyle=none;shape=connector;rounded=0;orthogonalLoop=1;jettySize=auto;html=1;exitX=0.5;exitY=1;exitDx=0;exitDy=0;dashed=1;strokeColor=default;strokeWidth=1;align=center;verticalAlign=middle;fontFamily=Helvetica;fontSize=11;fontColor=default;labelBackgroundColor=default;endArrow=classic;endFill=1;" parent="1" source="qrhvOayP_8q4RVoLL4xc-144" target="qrhvOayP_8q4RVoLL4xc-150" edge="1">
          <mxGeometry relative="1" as="geometry" />
        </mxCell>
        <mxCell id="qrhvOayP_8q4RVoLL4xc-156" value="&amp;lt;&amp;lt;include&amp;gt;&amp;gt;" style="edgeLabel;html=1;align=center;verticalAlign=middle;resizable=0;points=[];fontFamily=Helvetica;fontSize=11;fontColor=default;labelBackgroundColor=default;" parent="qrhvOayP_8q4RVoLL4xc-155" connectable="0" vertex="1">
          <mxGeometry x="0.0136" y="1" relative="1" as="geometry">
            <mxPoint as="offset" />
          </mxGeometry>
        </mxCell>
        <mxCell id="qrhvOayP_8q4RVoLL4xc-144" value="Update Profile" style="ellipse;whiteSpace=wrap;html=1;fontFamily=Helvetica;fontSize=11;fontColor=default;labelBackgroundColor=default;" parent="1" vertex="1">
          <mxGeometry x="1265" y="1630" width="120" height="80" as="geometry" />
        </mxCell>
        <mxCell id="qrhvOayP_8q4RVoLL4xc-145" value="View Daily Sales" style="ellipse;whiteSpace=wrap;html=1;fontFamily=Helvetica;fontSize=11;fontColor=default;labelBackgroundColor=default;" parent="1" vertex="1">
          <mxGeometry x="830" y="1370" width="120" height="80" as="geometry" />
        </mxCell>
        <mxCell id="qrhvOayP_8q4RVoLL4xc-146" value="View&amp;nbsp; Sales Report" style="ellipse;whiteSpace=wrap;html=1;fontFamily=Helvetica;fontSize=11;fontColor=default;labelBackgroundColor=default;" parent="1" vertex="1">
          <mxGeometry x="740" y="1485" width="120" height="80" as="geometry" />
        </mxCell>
        <mxCell id="qrhvOayP_8q4RVoLL4xc-151" style="edgeStyle=none;shape=connector;rounded=0;orthogonalLoop=1;jettySize=auto;html=1;exitX=0.5;exitY=1;exitDx=0;exitDy=0;entryX=0;entryY=0.5;entryDx=0;entryDy=0;dashed=1;strokeColor=default;strokeWidth=1;align=center;verticalAlign=middle;fontFamily=Helvetica;fontSize=11;fontColor=default;labelBackgroundColor=default;endArrow=classic;endFill=1;" parent="1" source="qrhvOayP_8q4RVoLL4xc-147" target="qrhvOayP_8q4RVoLL4xc-150" edge="1">
          <mxGeometry relative="1" as="geometry" />
        </mxCell>
        <mxCell id="qrhvOayP_8q4RVoLL4xc-152" value="&amp;lt;&amp;lt;Include&amp;gt;&amp;gt;" style="edgeLabel;html=1;align=center;verticalAlign=middle;resizable=0;points=[];fontFamily=Helvetica;fontSize=11;fontColor=default;labelBackgroundColor=default;" parent="qrhvOayP_8q4RVoLL4xc-151" connectable="0" vertex="1">
          <mxGeometry x="0.2307" y="2" relative="1" as="geometry">
            <mxPoint x="-1" as="offset" />
          </mxGeometry>
        </mxCell>
        <mxCell id="qrhvOayP_8q4RVoLL4xc-147" value="View Supplier List" style="ellipse;whiteSpace=wrap;html=1;fontFamily=Helvetica;fontSize=11;fontColor=default;labelBackgroundColor=default;" parent="1" vertex="1">
          <mxGeometry x="930" y="1565" width="120" height="80" as="geometry" />
        </mxCell>
        <mxCell id="qrhvOayP_8q4RVoLL4xc-153" style="edgeStyle=none;shape=connector;rounded=0;orthogonalLoop=1;jettySize=auto;html=1;exitX=0.5;exitY=1;exitDx=0;exitDy=0;entryX=0;entryY=0;entryDx=0;entryDy=0;dashed=1;strokeColor=default;strokeWidth=1;align=center;verticalAlign=middle;fontFamily=Helvetica;fontSize=11;fontColor=default;labelBackgroundColor=default;endArrow=classic;endFill=1;" parent="1" source="qrhvOayP_8q4RVoLL4xc-148" target="qrhvOayP_8q4RVoLL4xc-150" edge="1">
          <mxGeometry relative="1" as="geometry" />
        </mxCell>
        <mxCell id="qrhvOayP_8q4RVoLL4xc-154" value="&amp;lt;&amp;lt;include&amp;gt;&amp;gt;" style="edgeLabel;html=1;align=center;verticalAlign=middle;resizable=0;points=[];fontFamily=Helvetica;fontSize=11;fontColor=default;labelBackgroundColor=default;" parent="qrhvOayP_8q4RVoLL4xc-153" connectable="0" vertex="1">
          <mxGeometry x="0.0592" relative="1" as="geometry">
            <mxPoint x="-1" as="offset" />
          </mxGeometry>
        </mxCell>
        <mxCell id="qrhvOayP_8q4RVoLL4xc-148" value="View PO" style="ellipse;whiteSpace=wrap;html=1;fontFamily=Helvetica;fontSize=11;fontColor=default;labelBackgroundColor=default;" parent="1" vertex="1">
          <mxGeometry x="1100" y="1590" width="120" height="80" as="geometry" />
        </mxCell>
        <mxCell id="qrhvOayP_8q4RVoLL4xc-149" value="View PR" style="ellipse;whiteSpace=wrap;html=1;fontFamily=Helvetica;fontSize=11;fontColor=default;labelBackgroundColor=default;" parent="1" vertex="1">
          <mxGeometry x="960" y="1290" width="120" height="80" as="geometry" />
        </mxCell>
        <mxCell id="qrhvOayP_8q4RVoLL4xc-150" value="Open a Window called &quot;More...&quot;" style="ellipse;whiteSpace=wrap;html=1;fontFamily=Helvetica;fontSize=11;fontColor=default;labelBackgroundColor=default;" parent="1" vertex="1">
          <mxGeometry x="1220" y="1755" width="120" height="80" as="geometry" />
        </mxCell>
        <mxCell id="qrhvOayP_8q4RVoLL4xc-162" value="View Stock Levels" style="ellipse;whiteSpace=wrap;html=1;fontFamily=Helvetica;fontSize=11;fontColor=default;labelBackgroundColor=default;" parent="1" vertex="1">
          <mxGeometry x="-880" y="880" width="120" height="80" as="geometry" />
        </mxCell>
        <mxCell id="qrhvOayP_8q4RVoLL4xc-163" value="View Item List" style="ellipse;whiteSpace=wrap;html=1;fontFamily=Helvetica;fontSize=11;fontColor=default;labelBackgroundColor=default;" parent="1" vertex="1">
          <mxGeometry x="-520" y="907.5" width="120" height="80" as="geometry" />
        </mxCell>
        <mxCell id="b2msT5hIl-dH37Tvwdyp-11" style="edgeStyle=none;shape=connector;rounded=0;orthogonalLoop=1;jettySize=auto;html=1;dashed=1;strokeColor=default;strokeWidth=1;align=center;verticalAlign=middle;fontFamily=Helvetica;fontSize=11;fontColor=default;labelBackgroundColor=default;endArrow=classic;endFill=1;" parent="1" source="qrhvOayP_8q4RVoLL4xc-164" target="qrhvOayP_8q4RVoLL4xc-170" edge="1">
          <mxGeometry relative="1" as="geometry" />
        </mxCell>
        <mxCell id="qrhvOayP_8q4RVoLL4xc-164" value="View Supplier List" style="ellipse;whiteSpace=wrap;html=1;fontFamily=Helvetica;fontSize=11;fontColor=default;labelBackgroundColor=default;" parent="1" vertex="1">
          <mxGeometry x="-730" y="1000" width="120" height="80" as="geometry" />
        </mxCell>
        <mxCell id="qrhvOayP_8q4RVoLL4xc-165" value="Update Profile" style="ellipse;whiteSpace=wrap;html=1;fontFamily=Helvetica;fontSize=11;fontColor=default;labelBackgroundColor=default;" parent="1" vertex="1">
          <mxGeometry x="-740" y="1090" width="120" height="80" as="geometry" />
        </mxCell>
        <mxCell id="b2msT5hIl-dH37Tvwdyp-6" style="edgeStyle=none;shape=connector;rounded=0;orthogonalLoop=1;jettySize=auto;html=1;exitX=1;exitY=0.5;exitDx=0;exitDy=0;entryX=0;entryY=0.5;entryDx=0;entryDy=0;dashed=1;strokeColor=default;strokeWidth=1;align=center;verticalAlign=middle;fontFamily=Helvetica;fontSize=11;fontColor=default;labelBackgroundColor=default;endArrow=classic;endFill=1;" parent="1" source="qrhvOayP_8q4RVoLL4xc-166" target="qrhvOayP_8q4RVoLL4xc-170" edge="1">
          <mxGeometry relative="1" as="geometry" />
        </mxCell>
        <mxCell id="qrhvOayP_8q4RVoLL4xc-166" value="View Daily Sales" style="ellipse;whiteSpace=wrap;html=1;fontFamily=Helvetica;fontSize=11;fontColor=default;labelBackgroundColor=default;" parent="1" vertex="1">
          <mxGeometry x="-1030" y="720" width="120" height="80" as="geometry" />
        </mxCell>
        <mxCell id="b2msT5hIl-dH37Tvwdyp-7" style="edgeStyle=none;shape=connector;rounded=0;orthogonalLoop=1;jettySize=auto;html=1;exitX=1;exitY=0.5;exitDx=0;exitDy=0;entryX=0;entryY=1;entryDx=0;entryDy=0;dashed=1;strokeColor=default;strokeWidth=1;align=center;verticalAlign=middle;fontFamily=Helvetica;fontSize=11;fontColor=default;labelBackgroundColor=default;endArrow=classic;endFill=1;" parent="1" source="qrhvOayP_8q4RVoLL4xc-167" target="qrhvOayP_8q4RVoLL4xc-170" edge="1">
          <mxGeometry relative="1" as="geometry" />
        </mxCell>
        <mxCell id="qrhvOayP_8q4RVoLL4xc-167" value="View&amp;nbsp; Sales Report" style="ellipse;whiteSpace=wrap;html=1;fontFamily=Helvetica;fontSize=11;fontColor=default;labelBackgroundColor=default;" parent="1" vertex="1">
          <mxGeometry x="-1000" y="810" width="120" height="80" as="geometry" />
        </mxCell>
        <mxCell id="b2msT5hIl-dH37Tvwdyp-8" style="edgeStyle=none;shape=connector;rounded=0;orthogonalLoop=1;jettySize=auto;html=1;exitX=1;exitY=0;exitDx=0;exitDy=0;dashed=1;strokeColor=default;strokeWidth=1;align=center;verticalAlign=middle;fontFamily=Helvetica;fontSize=11;fontColor=default;labelBackgroundColor=default;endArrow=classic;endFill=1;" parent="1" source="qrhvOayP_8q4RVoLL4xc-168" target="qrhvOayP_8q4RVoLL4xc-170" edge="1">
          <mxGeometry relative="1" as="geometry" />
        </mxCell>
        <mxCell id="qrhvOayP_8q4RVoLL4xc-168" value="View PO" style="ellipse;whiteSpace=wrap;html=1;fontFamily=Helvetica;fontSize=11;fontColor=default;labelBackgroundColor=default;" parent="1" vertex="1">
          <mxGeometry x="-1020" y="907.5" width="120" height="80" as="geometry" />
        </mxCell>
        <mxCell id="b2msT5hIl-dH37Tvwdyp-13" style="edgeStyle=none;shape=connector;rounded=0;orthogonalLoop=1;jettySize=auto;html=1;exitX=0.5;exitY=0;exitDx=0;exitDy=0;dashed=1;strokeColor=default;strokeWidth=1;align=center;verticalAlign=middle;fontFamily=Helvetica;fontSize=11;fontColor=default;labelBackgroundColor=default;endArrow=classic;endFill=1;" parent="1" source="qrhvOayP_8q4RVoLL4xc-169" target="qrhvOayP_8q4RVoLL4xc-170" edge="1">
          <mxGeometry relative="1" as="geometry" />
        </mxCell>
        <mxCell id="qrhvOayP_8q4RVoLL4xc-169" value="View PR" style="ellipse;whiteSpace=wrap;html=1;fontFamily=Helvetica;fontSize=11;fontColor=default;labelBackgroundColor=default;" parent="1" vertex="1">
          <mxGeometry x="-620" y="1150" width="120" height="80" as="geometry" />
        </mxCell>
        <mxCell id="qrhvOayP_8q4RVoLL4xc-170" value="Open a Window called &quot;More...&quot;" style="ellipse;whiteSpace=wrap;html=1;fontFamily=Helvetica;fontSize=11;fontColor=default;labelBackgroundColor=default;" parent="1" vertex="1">
          <mxGeometry x="-680" y="720" width="120" height="80" as="geometry" />
        </mxCell>
        <mxCell id="qrhvOayP_8q4RVoLL4xc-199" style="edgeStyle=none;shape=connector;rounded=0;orthogonalLoop=1;jettySize=auto;html=1;exitX=1;exitY=0.5;exitDx=0;exitDy=0;entryX=0;entryY=0.3333333333333333;entryDx=0;entryDy=0;entryPerimeter=0;strokeColor=default;strokeWidth=2;align=center;verticalAlign=middle;fontFamily=Helvetica;fontSize=11;fontColor=default;labelBackgroundColor=default;endArrow=none;endFill=0;" parent="1" source="qrhvOayP_8q4RVoLL4xc-63" target="9xaBBuBTVZZ5uzn-Q917-1" edge="1">
          <mxGeometry relative="1" as="geometry" />
        </mxCell>
        <mxCell id="qrhvOayP_8q4RVoLL4xc-201" style="edgeStyle=none;shape=connector;rounded=0;orthogonalLoop=1;jettySize=auto;html=1;exitX=1;exitY=1;exitDx=0;exitDy=0;entryX=0.5;entryY=0.5;entryDx=0;entryDy=0;entryPerimeter=0;strokeColor=default;strokeWidth=2;align=center;verticalAlign=middle;fontFamily=Helvetica;fontSize=11;fontColor=default;labelBackgroundColor=default;endArrow=none;endFill=0;" parent="1" source="qrhvOayP_8q4RVoLL4xc-90" target="9xaBBuBTVZZ5uzn-Q917-58" edge="1">
          <mxGeometry relative="1" as="geometry" />
        </mxCell>
        <mxCell id="qrhvOayP_8q4RVoLL4xc-216" style="edgeStyle=none;shape=connector;rounded=0;orthogonalLoop=1;jettySize=auto;html=1;exitX=1;exitY=0.5;exitDx=0;exitDy=0;entryX=0;entryY=0.3333333333333333;entryDx=0;entryDy=0;entryPerimeter=0;strokeColor=default;strokeWidth=2;align=center;verticalAlign=middle;fontFamily=Helvetica;fontSize=11;fontColor=default;labelBackgroundColor=default;endArrow=none;endFill=0;" parent="1" source="qrhvOayP_8q4RVoLL4xc-149" target="9xaBBuBTVZZ5uzn-Q917-1" edge="1">
          <mxGeometry relative="1" as="geometry" />
        </mxCell>
        <mxCell id="qrhvOayP_8q4RVoLL4xc-221" style="edgeStyle=none;shape=connector;rounded=0;orthogonalLoop=1;jettySize=auto;html=1;exitX=0.5;exitY=0.5;exitDx=0;exitDy=0;exitPerimeter=0;entryX=0.694;entryY=0.036;entryDx=0;entryDy=0;entryPerimeter=0;strokeColor=default;strokeWidth=2;align=center;verticalAlign=middle;fontFamily=Helvetica;fontSize=11;fontColor=default;labelBackgroundColor=default;endArrow=none;endFill=0;" parent="1" source="9xaBBuBTVZZ5uzn-Q917-1" target="qrhvOayP_8q4RVoLL4xc-144" edge="1">
          <mxGeometry relative="1" as="geometry" />
        </mxCell>
        <mxCell id="qrhvOayP_8q4RVoLL4xc-226" style="edgeStyle=none;shape=connector;rounded=0;orthogonalLoop=1;jettySize=auto;html=1;exitX=0;exitY=0.5;exitDx=0;exitDy=0;entryX=0.5;entryY=0.5;entryDx=0;entryDy=0;entryPerimeter=0;strokeColor=default;strokeWidth=2;align=center;verticalAlign=middle;fontFamily=Helvetica;fontSize=11;fontColor=default;labelBackgroundColor=default;endArrow=none;endFill=0;" parent="1" source="qrhvOayP_8q4RVoLL4xc-165" target="9xaBBuBTVZZ5uzn-Q917-65" edge="1">
          <mxGeometry relative="1" as="geometry" />
        </mxCell>
        <mxCell id="qrhvOayP_8q4RVoLL4xc-227" style="edgeStyle=none;shape=connector;rounded=0;orthogonalLoop=1;jettySize=auto;html=1;exitX=0;exitY=0.5;exitDx=0;exitDy=0;entryX=0.5;entryY=0.5;entryDx=0;entryDy=0;entryPerimeter=0;strokeColor=default;strokeWidth=2;align=center;verticalAlign=middle;fontFamily=Helvetica;fontSize=11;fontColor=default;labelBackgroundColor=default;endArrow=none;endFill=0;" parent="1" source="qrhvOayP_8q4RVoLL4xc-164" target="9xaBBuBTVZZ5uzn-Q917-65" edge="1">
          <mxGeometry relative="1" as="geometry" />
        </mxCell>
        <mxCell id="qrhvOayP_8q4RVoLL4xc-228" style="edgeStyle=none;shape=connector;rounded=0;orthogonalLoop=1;jettySize=auto;html=1;exitX=0;exitY=0.5;exitDx=0;exitDy=0;entryX=0.25;entryY=0.1;entryDx=0;entryDy=0;entryPerimeter=0;strokeColor=default;strokeWidth=2;align=center;verticalAlign=middle;fontFamily=Helvetica;fontSize=11;fontColor=default;labelBackgroundColor=default;endArrow=none;endFill=0;" parent="1" source="qrhvOayP_8q4RVoLL4xc-163" target="9xaBBuBTVZZ5uzn-Q917-65" edge="1">
          <mxGeometry relative="1" as="geometry" />
        </mxCell>
        <mxCell id="qrhvOayP_8q4RVoLL4xc-229" style="edgeStyle=none;shape=connector;rounded=0;orthogonalLoop=1;jettySize=auto;html=1;exitX=0;exitY=1;exitDx=0;exitDy=0;entryX=0.5;entryY=0.5;entryDx=0;entryDy=0;entryPerimeter=0;strokeColor=default;strokeWidth=2;align=center;verticalAlign=middle;fontFamily=Helvetica;fontSize=11;fontColor=default;labelBackgroundColor=default;endArrow=none;endFill=0;" parent="1" source="qrhvOayP_8q4RVoLL4xc-166" target="9xaBBuBTVZZ5uzn-Q917-65" edge="1">
          <mxGeometry relative="1" as="geometry" />
        </mxCell>
        <mxCell id="qrhvOayP_8q4RVoLL4xc-230" style="edgeStyle=none;shape=connector;rounded=0;orthogonalLoop=1;jettySize=auto;html=1;exitX=0;exitY=0.5;exitDx=0;exitDy=0;entryX=0.5;entryY=0.5;entryDx=0;entryDy=0;entryPerimeter=0;strokeColor=default;strokeWidth=2;align=center;verticalAlign=middle;fontFamily=Helvetica;fontSize=11;fontColor=default;labelBackgroundColor=default;endArrow=none;endFill=0;" parent="1" source="qrhvOayP_8q4RVoLL4xc-167" target="9xaBBuBTVZZ5uzn-Q917-65" edge="1">
          <mxGeometry relative="1" as="geometry" />
        </mxCell>
        <mxCell id="qrhvOayP_8q4RVoLL4xc-231" style="edgeStyle=none;shape=connector;rounded=0;orthogonalLoop=1;jettySize=auto;html=1;exitX=0;exitY=1;exitDx=0;exitDy=0;entryX=0.5;entryY=0.5;entryDx=0;entryDy=0;entryPerimeter=0;strokeColor=default;strokeWidth=2;align=center;verticalAlign=middle;fontFamily=Helvetica;fontSize=11;fontColor=default;labelBackgroundColor=default;endArrow=none;endFill=0;" parent="1" source="qrhvOayP_8q4RVoLL4xc-168" target="9xaBBuBTVZZ5uzn-Q917-65" edge="1">
          <mxGeometry relative="1" as="geometry" />
        </mxCell>
        <mxCell id="qrhvOayP_8q4RVoLL4xc-232" style="edgeStyle=none;shape=connector;rounded=0;orthogonalLoop=1;jettySize=auto;html=1;exitX=0;exitY=1;exitDx=0;exitDy=0;entryX=0.5;entryY=0.5;entryDx=0;entryDy=0;entryPerimeter=0;strokeColor=default;strokeWidth=2;align=center;verticalAlign=middle;fontFamily=Helvetica;fontSize=11;fontColor=default;labelBackgroundColor=default;endArrow=none;endFill=0;" parent="1" source="qrhvOayP_8q4RVoLL4xc-162" target="9xaBBuBTVZZ5uzn-Q917-65" edge="1">
          <mxGeometry relative="1" as="geometry" />
        </mxCell>
        <mxCell id="qrhvOayP_8q4RVoLL4xc-233" style="edgeStyle=none;shape=connector;rounded=0;orthogonalLoop=1;jettySize=auto;html=1;exitX=0;exitY=0.5;exitDx=0;exitDy=0;entryX=0;entryY=0.3333333333333333;entryDx=0;entryDy=0;entryPerimeter=0;strokeColor=default;strokeWidth=2;align=center;verticalAlign=middle;fontFamily=Helvetica;fontSize=11;fontColor=default;labelBackgroundColor=default;endArrow=none;endFill=0;" parent="1" source="qrhvOayP_8q4RVoLL4xc-169" target="9xaBBuBTVZZ5uzn-Q917-65" edge="1">
          <mxGeometry relative="1" as="geometry" />
        </mxCell>
        <mxCell id="qrhvOayP_8q4RVoLL4xc-236" style="edgeStyle=none;shape=connector;rounded=0;orthogonalLoop=1;jettySize=auto;html=1;exitX=0.5;exitY=0.5;exitDx=0;exitDy=0;exitPerimeter=0;entryX=0;entryY=0.5;entryDx=0;entryDy=0;strokeColor=default;strokeWidth=2;align=center;verticalAlign=middle;fontFamily=Helvetica;fontSize=11;fontColor=default;labelBackgroundColor=default;endArrow=none;endFill=0;" parent="1" source="9xaBBuBTVZZ5uzn-Q917-57" target="qrhvOayP_8q4RVoLL4xc-94" edge="1">
          <mxGeometry relative="1" as="geometry" />
        </mxCell>
        <mxCell id="qrhvOayP_8q4RVoLL4xc-237" style="edgeStyle=none;shape=connector;rounded=0;orthogonalLoop=1;jettySize=auto;html=1;exitX=0.5;exitY=0.5;exitDx=0;exitDy=0;exitPerimeter=0;entryX=0.5;entryY=1;entryDx=0;entryDy=0;strokeColor=default;strokeWidth=2;align=center;verticalAlign=middle;fontFamily=Helvetica;fontSize=11;fontColor=default;labelBackgroundColor=default;endArrow=none;endFill=0;" parent="1" source="9xaBBuBTVZZ5uzn-Q917-57" target="qrhvOayP_8q4RVoLL4xc-95" edge="1">
          <mxGeometry relative="1" as="geometry" />
        </mxCell>
        <mxCell id="qrhvOayP_8q4RVoLL4xc-248" style="edgeStyle=none;shape=connector;rounded=0;orthogonalLoop=1;jettySize=auto;html=1;exitX=0.5;exitY=0.5;exitDx=0;exitDy=0;exitPerimeter=0;entryX=0;entryY=0.5;entryDx=0;entryDy=0;strokeColor=default;strokeWidth=2;align=center;verticalAlign=middle;fontFamily=Helvetica;fontSize=11;fontColor=default;labelBackgroundColor=default;endArrow=none;endFill=0;" parent="1" source="9xaBBuBTVZZ5uzn-Q917-57" target="qrhvOayP_8q4RVoLL4xc-89" edge="1">
          <mxGeometry relative="1" as="geometry" />
        </mxCell>
        <mxCell id="9xaBBuBTVZZ5uzn-Q917-57" value="IM" style="shape=umlActor;verticalLabelPosition=bottom;verticalAlign=top;html=1;outlineConnect=0;" parent="1" vertex="1">
          <mxGeometry x="-1110" y="170" width="30" height="60" as="geometry" />
        </mxCell>
        <mxCell id="X63zLzKYGqFzprNsH5qM-3" value="" style="endArrow=none;html=1;rounded=0;" parent="1" source="9xaBBuBTVZZ5uzn-Q917-59" target="qrhvOayP_8q4RVoLL4xc-52" edge="1">
          <mxGeometry width="50" height="50" relative="1" as="geometry">
            <mxPoint x="1570" y="-90" as="sourcePoint" />
            <mxPoint x="1620" y="-140" as="targetPoint" />
          </mxGeometry>
        </mxCell>
        <mxCell id="X63zLzKYGqFzprNsH5qM-4" value="Insert user id" style="ellipse;whiteSpace=wrap;html=1;" parent="1" vertex="1">
          <mxGeometry x="1660" y="-560" width="120" height="80" as="geometry" />
        </mxCell>
        <mxCell id="X63zLzKYGqFzprNsH5qM-5" style="edgeStyle=none;shape=connector;rounded=0;orthogonalLoop=1;jettySize=auto;html=1;dashed=1;strokeColor=default;strokeWidth=1;align=center;verticalAlign=middle;fontFamily=Helvetica;fontSize=11;fontColor=default;labelBackgroundColor=default;endArrow=classic;endFill=1;entryX=0.613;entryY=1.005;entryDx=0;entryDy=0;entryPerimeter=0;" parent="1" source="9xaBBuBTVZZ5uzn-Q917-66" target="X63zLzKYGqFzprNsH5qM-4" edge="1">
          <mxGeometry relative="1" as="geometry">
            <mxPoint x="1529" y="-257.5" as="sourcePoint" />
            <mxPoint x="1615" y="-402.5" as="targetPoint" />
          </mxGeometry>
        </mxCell>
        <mxCell id="X63zLzKYGqFzprNsH5qM-6" value="&amp;lt;&amp;lt;include&amp;gt;&amp;gt;" style="edgeLabel;html=1;align=center;verticalAlign=middle;resizable=0;points=[];fontFamily=Helvetica;fontSize=11;fontColor=default;labelBackgroundColor=default;" parent="X63zLzKYGqFzprNsH5qM-5" connectable="0" vertex="1">
          <mxGeometry x="-0.0115" y="4" relative="1" as="geometry">
            <mxPoint as="offset" />
          </mxGeometry>
        </mxCell>
        <mxCell id="X63zLzKYGqFzprNsH5qM-7" value="Delete User" style="ellipse;whiteSpace=wrap;html=1;" parent="1" vertex="1">
          <mxGeometry x="1430" y="10" width="120" height="80" as="geometry" />
        </mxCell>
        <mxCell id="X63zLzKYGqFzprNsH5qM-8" value="Edit User information" style="ellipse;whiteSpace=wrap;html=1;" parent="1" vertex="1">
          <mxGeometry x="1570" y="100" width="120" height="80" as="geometry" />
        </mxCell>
        <mxCell id="X63zLzKYGqFzprNsH5qM-9" value="Search User" style="ellipse;whiteSpace=wrap;html=1;" parent="1" vertex="1">
          <mxGeometry x="1720" y="110" width="120" height="80" as="geometry" />
        </mxCell>
        <mxCell id="X63zLzKYGqFzprNsH5qM-10" style="edgeStyle=none;shape=connector;rounded=0;orthogonalLoop=1;jettySize=auto;html=1;exitX=0.713;exitY=0.052;exitDx=0;exitDy=0;entryX=0.261;entryY=0.905;entryDx=0;entryDy=0;dashed=1;strokeColor=default;align=center;verticalAlign=middle;fontFamily=Helvetica;fontSize=11;fontColor=default;labelBackgroundColor=default;endArrow=classic;entryPerimeter=0;exitPerimeter=0;" parent="1" source="X63zLzKYGqFzprNsH5qM-8" target="qrhvOayP_8q4RVoLL4xc-52" edge="1">
          <mxGeometry relative="1" as="geometry">
            <mxPoint x="1390" y="503" as="sourcePoint" />
            <mxPoint x="1390" y="455" as="targetPoint" />
          </mxGeometry>
        </mxCell>
        <mxCell id="X63zLzKYGqFzprNsH5qM-11" value="&amp;lt;&amp;lt;extend&amp;gt;&amp;gt;" style="edgeLabel;html=1;align=center;verticalAlign=middle;resizable=0;points=[];fontFamily=Helvetica;fontSize=11;fontColor=default;labelBackgroundColor=default;" parent="X63zLzKYGqFzprNsH5qM-10" connectable="0" vertex="1">
          <mxGeometry x="-0.1317" relative="1" as="geometry">
            <mxPoint as="offset" />
          </mxGeometry>
        </mxCell>
        <mxCell id="X63zLzKYGqFzprNsH5qM-12" style="edgeStyle=none;shape=connector;rounded=0;orthogonalLoop=1;jettySize=auto;html=1;dashed=1;strokeColor=default;align=center;verticalAlign=middle;fontFamily=Helvetica;fontSize=11;fontColor=default;labelBackgroundColor=default;endArrow=classic;" parent="1" source="X63zLzKYGqFzprNsH5qM-9" target="qrhvOayP_8q4RVoLL4xc-52" edge="1">
          <mxGeometry relative="1" as="geometry">
            <mxPoint x="1666" y="114" as="sourcePoint" />
            <mxPoint x="1711" y="12" as="targetPoint" />
          </mxGeometry>
        </mxCell>
        <mxCell id="X63zLzKYGqFzprNsH5qM-13" value="&amp;lt;&amp;lt;extend&amp;gt;&amp;gt;" style="edgeLabel;html=1;align=center;verticalAlign=middle;resizable=0;points=[];fontFamily=Helvetica;fontSize=11;fontColor=default;labelBackgroundColor=default;" parent="X63zLzKYGqFzprNsH5qM-12" connectable="0" vertex="1">
          <mxGeometry x="-0.1317" relative="1" as="geometry">
            <mxPoint as="offset" />
          </mxGeometry>
        </mxCell>
        <mxCell id="X63zLzKYGqFzprNsH5qM-14" style="edgeStyle=none;shape=connector;rounded=0;orthogonalLoop=1;jettySize=auto;html=1;dashed=1;strokeColor=default;align=center;verticalAlign=middle;fontFamily=Helvetica;fontSize=11;fontColor=default;labelBackgroundColor=default;endArrow=classic;exitX=1;exitY=0;exitDx=0;exitDy=0;" parent="1" source="X63zLzKYGqFzprNsH5qM-7" target="qrhvOayP_8q4RVoLL4xc-52" edge="1">
          <mxGeometry relative="1" as="geometry">
            <mxPoint x="1779" y="121" as="sourcePoint" />
            <mxPoint x="1751" y="19" as="targetPoint" />
          </mxGeometry>
        </mxCell>
        <mxCell id="X63zLzKYGqFzprNsH5qM-15" value="&amp;lt;&amp;lt;extend&amp;gt;&amp;gt;" style="edgeLabel;html=1;align=center;verticalAlign=middle;resizable=0;points=[];fontFamily=Helvetica;fontSize=11;fontColor=default;labelBackgroundColor=default;" parent="X63zLzKYGqFzprNsH5qM-14" connectable="0" vertex="1">
          <mxGeometry x="-0.1317" relative="1" as="geometry">
            <mxPoint as="offset" />
          </mxGeometry>
        </mxCell>
        <mxCell id="X63zLzKYGqFzprNsH5qM-16" value="Insert user name" style="ellipse;whiteSpace=wrap;html=1;" parent="1" vertex="1">
          <mxGeometry x="1530" y="-510" width="120" height="80" as="geometry" />
        </mxCell>
        <mxCell id="X63zLzKYGqFzprNsH5qM-17" style="edgeStyle=none;shape=connector;rounded=0;orthogonalLoop=1;jettySize=auto;html=1;dashed=1;strokeColor=default;strokeWidth=1;align=center;verticalAlign=middle;fontFamily=Helvetica;fontSize=11;fontColor=default;labelBackgroundColor=default;endArrow=classic;endFill=1;entryX=1.015;entryY=0.661;entryDx=0;entryDy=0;entryPerimeter=0;exitX=0;exitY=0;exitDx=0;exitDy=0;" parent="1" source="9xaBBuBTVZZ5uzn-Q917-66" target="X63zLzKYGqFzprNsH5qM-16" edge="1">
          <mxGeometry relative="1" as="geometry">
            <mxPoint x="1700" y="-205" as="sourcePoint" />
            <mxPoint x="1515" y="-249.5" as="targetPoint" />
          </mxGeometry>
        </mxCell>
        <mxCell id="X63zLzKYGqFzprNsH5qM-18" value="&amp;lt;&amp;lt;include&amp;gt;&amp;gt;" style="edgeLabel;html=1;align=center;verticalAlign=middle;resizable=0;points=[];fontFamily=Helvetica;fontSize=11;fontColor=default;labelBackgroundColor=default;" parent="X63zLzKYGqFzprNsH5qM-17" connectable="0" vertex="1">
          <mxGeometry x="-0.0115" y="4" relative="1" as="geometry">
            <mxPoint as="offset" />
          </mxGeometry>
        </mxCell>
        <mxCell id="X63zLzKYGqFzprNsH5qM-19" value="Insert user role" style="ellipse;whiteSpace=wrap;html=1;" parent="1" vertex="1">
          <mxGeometry x="1380" y="-450" width="120" height="80" as="geometry" />
        </mxCell>
        <mxCell id="X63zLzKYGqFzprNsH5qM-20" value="Insert user&#39;s phone number" style="ellipse;whiteSpace=wrap;html=1;" parent="1" vertex="1">
          <mxGeometry x="1380" y="-350" width="120" height="80" as="geometry" />
        </mxCell>
        <mxCell id="X63zLzKYGqFzprNsH5qM-22" value="Insert user&#39;s email address" style="ellipse;whiteSpace=wrap;html=1;" parent="1" vertex="1">
          <mxGeometry x="1460" y="-270" width="120" height="80" as="geometry" />
        </mxCell>
        <mxCell id="X63zLzKYGqFzprNsH5qM-23" value="Insert user&#39;s password" style="ellipse;whiteSpace=wrap;html=1;" parent="1" vertex="1">
          <mxGeometry x="1615" y="-250" width="120" height="80" as="geometry" />
        </mxCell>
        <mxCell id="X63zLzKYGqFzprNsH5qM-24" style="edgeStyle=none;shape=connector;rounded=0;orthogonalLoop=1;jettySize=auto;html=1;dashed=1;strokeColor=default;strokeWidth=1;align=center;verticalAlign=middle;fontFamily=Helvetica;fontSize=11;fontColor=default;labelBackgroundColor=default;endArrow=classic;endFill=1;exitX=0;exitY=0.5;exitDx=0;exitDy=0;" parent="1" source="9xaBBuBTVZZ5uzn-Q917-66" target="X63zLzKYGqFzprNsH5qM-19" edge="1">
          <mxGeometry relative="1" as="geometry">
            <mxPoint x="1788" y="-338" as="sourcePoint" />
            <mxPoint x="1662" y="-447" as="targetPoint" />
          </mxGeometry>
        </mxCell>
        <mxCell id="X63zLzKYGqFzprNsH5qM-25" value="&amp;lt;&amp;lt;include&amp;gt;&amp;gt;" style="edgeLabel;html=1;align=center;verticalAlign=middle;resizable=0;points=[];fontFamily=Helvetica;fontSize=11;fontColor=default;labelBackgroundColor=default;" parent="X63zLzKYGqFzprNsH5qM-24" connectable="0" vertex="1">
          <mxGeometry x="-0.0115" y="4" relative="1" as="geometry">
            <mxPoint as="offset" />
          </mxGeometry>
        </mxCell>
        <mxCell id="X63zLzKYGqFzprNsH5qM-26" style="edgeStyle=none;shape=connector;rounded=0;orthogonalLoop=1;jettySize=auto;html=1;dashed=1;strokeColor=default;strokeWidth=1;align=center;verticalAlign=middle;fontFamily=Helvetica;fontSize=11;fontColor=default;labelBackgroundColor=default;endArrow=classic;endFill=1;exitX=0;exitY=0.5;exitDx=0;exitDy=0;entryX=1;entryY=0.5;entryDx=0;entryDy=0;" parent="1" target="X63zLzKYGqFzprNsH5qM-20" edge="1">
          <mxGeometry relative="1" as="geometry">
            <mxPoint x="1770" y="-310" as="sourcePoint" />
            <mxPoint x="1505" y="-385" as="targetPoint" />
          </mxGeometry>
        </mxCell>
        <mxCell id="X63zLzKYGqFzprNsH5qM-27" value="&amp;lt;&amp;lt;include&amp;gt;&amp;gt;" style="edgeLabel;html=1;align=center;verticalAlign=middle;resizable=0;points=[];fontFamily=Helvetica;fontSize=11;fontColor=default;labelBackgroundColor=default;" parent="X63zLzKYGqFzprNsH5qM-26" connectable="0" vertex="1">
          <mxGeometry x="-0.0115" y="4" relative="1" as="geometry">
            <mxPoint as="offset" />
          </mxGeometry>
        </mxCell>
        <mxCell id="X63zLzKYGqFzprNsH5qM-28" style="edgeStyle=none;shape=connector;rounded=0;orthogonalLoop=1;jettySize=auto;html=1;dashed=1;strokeColor=default;strokeWidth=1;align=center;verticalAlign=middle;fontFamily=Helvetica;fontSize=11;fontColor=default;labelBackgroundColor=default;endArrow=classic;endFill=1;exitX=0;exitY=0.5;exitDx=0;exitDy=0;" parent="1" target="X63zLzKYGqFzprNsH5qM-22" edge="1">
          <mxGeometry relative="1" as="geometry">
            <mxPoint x="1780" y="-300" as="sourcePoint" />
            <mxPoint x="1510" y="-300" as="targetPoint" />
          </mxGeometry>
        </mxCell>
        <mxCell id="X63zLzKYGqFzprNsH5qM-29" value="&amp;lt;&amp;lt;include&amp;gt;&amp;gt;" style="edgeLabel;html=1;align=center;verticalAlign=middle;resizable=0;points=[];fontFamily=Helvetica;fontSize=11;fontColor=default;labelBackgroundColor=default;" parent="X63zLzKYGqFzprNsH5qM-28" connectable="0" vertex="1">
          <mxGeometry x="-0.0115" y="4" relative="1" as="geometry">
            <mxPoint as="offset" />
          </mxGeometry>
        </mxCell>
        <mxCell id="X63zLzKYGqFzprNsH5qM-30" style="edgeStyle=none;shape=connector;rounded=0;orthogonalLoop=1;jettySize=auto;html=1;dashed=1;strokeColor=default;strokeWidth=1;align=center;verticalAlign=middle;fontFamily=Helvetica;fontSize=11;fontColor=default;labelBackgroundColor=default;endArrow=classic;endFill=1;exitX=0;exitY=0.5;exitDx=0;exitDy=0;" parent="1" target="X63zLzKYGqFzprNsH5qM-23" edge="1">
          <mxGeometry relative="1" as="geometry">
            <mxPoint x="1790" y="-290" as="sourcePoint" />
            <mxPoint x="1586" y="-235" as="targetPoint" />
          </mxGeometry>
        </mxCell>
        <mxCell id="X63zLzKYGqFzprNsH5qM-31" value="&amp;lt;&amp;lt;include&amp;gt;&amp;gt;" style="edgeLabel;html=1;align=center;verticalAlign=middle;resizable=0;points=[];fontFamily=Helvetica;fontSize=11;fontColor=default;labelBackgroundColor=default;" parent="X63zLzKYGqFzprNsH5qM-30" connectable="0" vertex="1">
          <mxGeometry x="-0.0115" y="4" relative="1" as="geometry">
            <mxPoint as="offset" />
          </mxGeometry>
        </mxCell>
        <mxCell id="xcpmCht8TsXKJCd08H4o-1" style="rounded=0;orthogonalLoop=1;jettySize=auto;html=1;exitX=0.5;exitY=1;exitDx=0;exitDy=0;entryX=0;entryY=0.3333333333333333;entryDx=0;entryDy=0;entryPerimeter=0;endArrow=none;endFill=0;strokeWidth=2;" parent="1" source="qrhvOayP_8q4RVoLL4xc-76" target="9xaBBuBTVZZ5uzn-Q917-58" edge="1">
          <mxGeometry relative="1" as="geometry" />
        </mxCell>
        <mxCell id="xcpmCht8TsXKJCd08H4o-3" style="edgeStyle=none;shape=connector;rounded=0;orthogonalLoop=1;jettySize=auto;html=1;exitX=1;exitY=0;exitDx=0;exitDy=0;entryX=0.5;entryY=0.5;entryDx=0;entryDy=0;entryPerimeter=0;strokeColor=default;strokeWidth=2;align=center;verticalAlign=middle;fontFamily=Helvetica;fontSize=11;fontColor=default;labelBackgroundColor=default;endArrow=none;endFill=0;" parent="1" source="qrhvOayP_8q4RVoLL4xc-53" target="9xaBBuBTVZZ5uzn-Q917-58" edge="1">
          <mxGeometry relative="1" as="geometry" />
        </mxCell>
        <mxCell id="xcpmCht8TsXKJCd08H4o-4" style="edgeStyle=none;shape=connector;rounded=0;orthogonalLoop=1;jettySize=auto;html=1;exitX=1;exitY=1;exitDx=0;exitDy=0;entryX=0.25;entryY=0.1;entryDx=0;entryDy=0;entryPerimeter=0;strokeColor=default;strokeWidth=2;align=center;verticalAlign=middle;fontFamily=Helvetica;fontSize=11;fontColor=default;labelBackgroundColor=default;endArrow=none;endFill=0;" parent="1" source="qrhvOayP_8q4RVoLL4xc-53" target="9xaBBuBTVZZ5uzn-Q917-1" edge="1">
          <mxGeometry relative="1" as="geometry" />
        </mxCell>
        <mxCell id="b2msT5hIl-dH37Tvwdyp-9" style="edgeStyle=none;shape=connector;rounded=0;orthogonalLoop=1;jettySize=auto;html=1;exitX=1;exitY=0.5;exitDx=0;exitDy=0;entryX=0.56;entryY=0.968;entryDx=0;entryDy=0;entryPerimeter=0;dashed=1;strokeColor=default;strokeWidth=1;align=center;verticalAlign=middle;fontFamily=Helvetica;fontSize=11;fontColor=default;labelBackgroundColor=default;endArrow=classic;endFill=1;" parent="1" source="qrhvOayP_8q4RVoLL4xc-162" target="qrhvOayP_8q4RVoLL4xc-170" edge="1">
          <mxGeometry relative="1" as="geometry" />
        </mxCell>
        <mxCell id="b2msT5hIl-dH37Tvwdyp-10" style="edgeStyle=none;shape=connector;rounded=0;orthogonalLoop=1;jettySize=auto;html=1;exitX=0.5;exitY=0;exitDx=0;exitDy=0;entryX=0.788;entryY=0.875;entryDx=0;entryDy=0;entryPerimeter=0;dashed=1;strokeColor=default;strokeWidth=1;align=center;verticalAlign=middle;fontFamily=Helvetica;fontSize=11;fontColor=default;labelBackgroundColor=default;endArrow=classic;endFill=1;" parent="1" source="qrhvOayP_8q4RVoLL4xc-163" target="qrhvOayP_8q4RVoLL4xc-170" edge="1">
          <mxGeometry relative="1" as="geometry" />
        </mxCell>
      </root>
    </mxGraphModel>
  </diagram>
</mxfile>
